<svg width="28" height="28" viewBox="0 0 28 28" fill="none" xmlns="http://www.w3.org/2000/svg">
<path fill-rule="evenodd" clip-rule="evenodd" d="M18.346 25.6667V16.6308H21.3793L21.8332 13.1098H18.3448V10.8617C18.3448 9.84201 18.6283 9.14668 20.0913 9.14668H21.9557V5.99668C21.0528 5.90059 20.1453 5.85386 19.2373 5.85668C16.5493 5.85668 14.7095 7.49818 14.7095 10.5117V13.1098H11.6668V16.6308H14.7083V25.6667H3.6215C2.90983 25.6667 2.3335 25.0903 2.3335 24.3787V3.62134C2.3335 2.90968 2.90983 2.33334 3.6215 2.33334H24.3788C25.0905 2.33334 25.6668 2.90968 25.6668 3.62134V24.3787C25.6668 25.0903 25.0905 25.6667 24.3788 25.6667H18.346Z" fill="white"/>
</svg>
