<svg width="1728" height="1117" viewBox="0 0 1728 1117" fill="none" xmlns="http://www.w3.org/2000/svg">
<g clip-path="url(#clip0_42_967)">
<rect width="1728" height="1117" fill="#FAF6EF"/>
<path d="M-1 535.966H33.2845C111.384 535.966 174.696 599.278 174.696 677.378V677.378" stroke="#E08888" stroke-width="50"/>
<path d="M-0.813147 492.387H26.1089C128.276 492.387 211.1 575.21 211.1 677.378V677.378" stroke="#A777AB" stroke-width="50"/>
<path d="M-0.813689 448.808H19.6747C145.91 448.808 248.244 551.142 248.244 677.378V677.378" stroke="#6863A9" stroke-width="50"/>
<path d="M-0.813579 404.34H11.6088C162.403 404.34 284.646 526.583 284.646 677.378V677.378" stroke="#6F99CA" stroke-width="50"/>
<path d="M-0.815068 359.872H4.28427C179.638 359.872 321.79 502.024 321.79 677.378V677.378" stroke="#51BABA" stroke-width="50"/>
<path d="M-0.814706 316.293V316.293C197.357 316.293 358.007 479.203 358.007 677.375V677.375" stroke="#5C9258" stroke-width="50"/>
<path d="M-0.813308 271.38V271.38C217.873 271.38 395.153 448.66 395.153 667.347V677.375" stroke="#F3CD45" stroke-width="50"/>
<path d="M-0.629507 226.912V226.912C238.674 226.912 432.668 420.906 432.668 660.209V677.375" stroke="#DB8B51" stroke-width="50"/>
<path d="M-0.442604 184V184C259.376 184 470 394.625 470 654.443V677.375" stroke="#DB6565" stroke-width="50"/>
<path d="M858.832 415.168C859.344 416.149 859.451 417.643 859.152 419.648L858.832 421.952C857.936 428.309 857.189 433.067 856.592 436.224V436.416L856.464 437.056C856.251 438.123 856.037 439.104 855.824 440L855.696 440.64L855.632 440.832C854.864 444.16 853.989 447.211 853.008 449.984C851.984 452.971 850.683 454.912 849.104 455.808C848.037 456.405 846.651 456.704 844.944 456.704H844.88C841.552 456.704 839.141 456.171 837.648 455.104L837.52 454.976L836.688 454.336H836.88C836.837 454.336 836.816 454.315 836.816 454.272C836.475 453.845 836.133 453.099 835.792 452.032C835.664 451.605 835.536 451.2 835.408 450.816V450.752C835.28 450.411 835.109 449.899 834.896 449.216C833.872 445.931 833.168 443.413 832.784 441.664C832.656 441.024 832.507 440.597 832.336 440.384C832.08 439.957 831.781 439.808 831.44 439.936C831.184 440.021 830.971 440.256 830.8 440.64C830.373 441.92 829.925 443.413 829.456 445.12C829.115 446.443 828.731 447.979 828.304 449.728L827.984 451.264C827.6 453.141 826.981 454.4 826.128 455.04C825.488 455.595 824.4 455.979 822.864 456.192C820.731 456.491 819.003 456.576 817.68 456.448C816.571 456.363 815.589 456.107 814.736 455.68C813.883 455.253 813.2 454.805 812.688 454.336C812.219 453.867 811.749 453.184 811.28 452.288C810.811 451.392 810.469 450.645 810.256 450.048C810.043 449.451 809.765 448.576 809.424 447.424L809.232 446.72C809.232 446.72 809.232 446.699 809.232 446.656L809.168 446.528C808.784 445.163 808.379 443.584 807.952 441.792L807.76 441.024V440.832C807.589 440.107 807.355 439.061 807.056 437.696L806.8 436.48C806.245 434.005 805.733 431.509 805.264 428.992C805.136 428.437 804.944 427.605 804.688 426.496C804.432 425.301 804.24 424.384 804.112 423.744C803.984 423.061 803.835 422.208 803.664 421.184C803.536 420.117 803.493 419.157 803.536 418.304C803.579 417.408 803.685 416.555 803.856 415.744C804.155 414.592 804.773 413.739 805.712 413.184L805.84 413.12L806.672 412.672V412.8C807.397 412.544 808.272 412.416 809.296 412.416C810.96 412.416 812.325 412.8 813.392 413.568C813.392 413.611 813.413 413.653 813.456 413.696C813.499 413.696 813.52 413.696 813.52 413.696V413.504L814.224 414.4L814.288 414.464V414.528C814.885 415.253 815.269 416.192 815.44 417.344C816.379 422.763 817.872 430.592 819.92 440.832C819.963 440.917 819.984 440.981 819.984 441.024C820.069 441.109 820.155 441.152 820.24 441.152C820.581 441.109 820.965 440.768 821.392 440.128C821.819 439.445 822.096 438.912 822.224 438.528C822.523 437.675 822.821 436.331 823.12 434.496C823.248 433.771 823.355 433.195 823.44 432.768C823.952 429.995 824.827 427.328 826.064 424.768V424.704L826.128 424.64C826.299 424.299 826.427 424.043 826.512 423.872C826.811 423.36 827.152 422.933 827.536 422.592C828.133 422.123 828.88 421.845 829.776 421.76L829.712 421.696H830.608H830.736C832.016 421.739 833.275 422.101 834.512 422.784C836.816 423.979 838.395 425.771 839.248 428.16C839.589 429.141 839.931 430.656 840.272 432.704C840.869 435.776 841.573 437.995 842.384 439.36C842.683 439.829 842.96 440.128 843.216 440.256C843.6 440.469 843.899 440.448 844.112 440.192C844.24 440.107 844.325 439.893 844.368 439.552C844.667 438.059 844.965 436.267 845.264 434.176L845.328 433.728C845.499 432.448 845.669 431.125 845.84 429.76C846.096 428.053 846.416 426.112 846.8 423.936H846.736L846.8 423.808L846.928 423.04C847.184 421.589 847.483 420.053 847.824 418.432L848.272 416C848.528 414.763 848.891 413.888 849.36 413.376C850.597 412.181 852.624 411.947 855.44 412.672C857.061 413.099 858.192 413.931 858.832 415.168ZM897.482 438.144C897.567 439.211 897.631 440.064 897.674 440.704C897.716 441.344 897.759 442.283 897.802 443.52C897.844 444.715 897.844 445.717 897.802 446.528C897.759 447.296 897.674 448.235 897.546 449.344C897.46 450.411 897.29 451.307 897.034 452.032C896.82 452.715 896.522 453.419 896.138 454.144C895.796 454.827 895.348 455.36 894.794 455.744C894.239 456.085 893.599 456.277 892.874 456.32L891.914 456.384L892.17 456.576L891.658 456.448L890.378 456.576L891.146 456.256L890.122 455.872C889.908 455.829 889.738 455.787 889.61 455.744C887.178 454.72 885.919 451.947 885.834 447.424C885.791 445.632 885.791 442.923 885.834 439.296C885.834 437.163 885.834 435.52 885.834 434.368C885.834 432.405 885.343 431.019 884.362 430.208C883.423 429.355 882.186 428.928 880.65 428.928H880.458C880.116 428.928 879.818 428.949 879.562 428.992C879.434 428.992 879.306 428.992 879.178 428.992C877.3 430.144 876.127 431.595 875.658 433.344L875.53 433.728C875.53 433.899 875.53 434.176 875.53 434.56C875.53 435.499 875.53 436.907 875.53 438.784C875.487 442.539 875.487 445.333 875.53 447.168C875.53 447.424 875.551 447.787 875.594 448.256C875.594 449.195 875.594 450.133 875.594 451.072C875.594 452.011 875.38 452.928 874.954 453.824C874.527 454.677 873.887 455.275 873.034 455.616C872.906 455.659 872.778 455.701 872.65 455.744C871.583 456.171 870.196 456.213 868.49 455.872C866.783 455.488 865.567 454.763 864.842 453.696H864.778L864.586 453.312C864.586 453.269 864.564 453.248 864.522 453.248L864.458 453.056C864.031 452.032 863.796 450.645 863.754 448.896V448.128C863.796 447.061 863.924 445.504 864.138 443.456C864.266 442.005 864.351 440.981 864.394 440.384V439.424C864.65 434.048 864.756 429.995 864.714 427.264C864.714 426.539 864.522 425.024 864.138 422.72C863.412 418.325 863.114 415.104 863.242 413.056H863.178L863.242 412.672V412.352H863.306C863.604 409.365 864.799 407.509 866.89 406.784L867.274 406.656L867.53 406.592C867.914 406.549 868.276 406.507 868.618 406.464C869.684 406.421 870.73 406.635 871.754 407.104C872.778 407.573 873.631 408.213 874.314 409.024C875.508 410.432 875.914 411.989 875.53 413.696V416.96C875.53 418.155 875.828 419.029 876.426 419.584C877.151 420.224 878.879 420.395 881.61 420.096C883.956 419.797 886.068 419.904 887.946 420.416C888.415 420.544 888.927 420.736 889.482 420.992L889.61 421.056L890.442 421.376H890.378C892.255 422.315 893.77 423.659 894.922 425.408V425.344L895.306 426.112L895.37 426.24C896.65 428.629 897.311 431.637 897.354 435.264C897.354 435.691 897.396 436.651 897.482 438.144ZM934.489 451.456L934.041 452.096L933.977 452.224H933.913C933.23 453.077 932.313 453.803 931.161 454.4C930.009 454.997 928.899 455.424 927.833 455.68C925.87 456.107 923.907 456.32 921.945 456.32C917.337 456.32 913.347 455.253 909.977 453.12C908.057 451.925 906.478 450.453 905.241 448.704C904.003 446.955 903.15 444.992 902.681 442.816C902.553 442.176 902.425 441.408 902.297 440.512L902.233 440V439.744C902.105 438.336 902.083 436.949 902.169 435.584L902.233 435.328V434.816H902.297C902.51 432.853 902.937 431.125 903.577 429.632C904.686 427.029 906.393 424.875 908.697 423.168L908.825 423.104L909.465 422.592V422.656C911.043 421.632 912.771 420.864 914.649 420.352V420.288L915.417 420.16L915.545 420.096C918.915 419.371 922.222 419.52 925.465 420.544C928.75 421.568 931.139 423.232 932.632 425.536C934.169 427.797 934.723 430.613 934.297 433.984C933.87 437.781 930.179 440.149 923.225 441.088C922.798 441.173 922.137 441.259 921.241 441.344C918.937 441.557 917.251 441.856 916.185 442.24C915.545 442.496 915.118 442.859 914.905 443.328C914.734 443.755 914.755 444.245 914.969 444.8C915.097 445.184 915.331 445.525 915.673 445.824C916.27 446.421 917.017 446.869 917.913 447.168C919.747 447.68 921.625 447.808 923.545 447.552C925.465 447.253 927.235 446.72 928.857 445.952C929.027 445.909 929.241 445.845 929.497 445.76L929.561 445.696H929.689L930.457 445.44L930.393 445.504C932.355 445.163 933.699 445.675 934.425 447.04C935.278 448.576 935.299 450.048 934.489 451.456ZM924.121 429.12C923.097 428.565 921.859 428.288 920.409 428.288C918.233 428.331 916.419 428.971 914.969 430.208C914.158 430.891 913.817 431.68 913.945 432.576C914.073 433.429 914.585 434.069 915.481 434.496C916.206 434.837 917.102 434.987 918.169 434.944C919.235 434.859 920.217 434.709 921.113 434.496C922.051 434.283 922.883 434.005 923.609 433.664C924.035 433.451 924.441 433.195 924.825 432.896C925.465 432.341 925.785 431.787 925.785 431.232C925.827 430.805 925.657 430.4 925.273 430.016C924.974 429.675 924.59 429.376 924.121 429.12ZM964.071 423.872L964.007 424.32L963.943 424.576C963.772 425.216 963.495 425.771 963.111 426.24C962.684 426.795 962.151 427.2 961.511 427.456C960.871 427.712 960.316 427.861 959.847 427.904C959.42 427.947 958.801 427.968 957.991 427.968C956.625 427.968 955.644 428.075 955.047 428.288C954.407 428.459 953.852 428.8 953.383 429.312C952.913 429.781 952.551 430.272 952.295 430.784C952.081 431.253 951.911 431.893 951.783 432.704C951.655 433.515 951.569 434.176 951.527 434.688C951.527 435.157 951.505 435.819 951.463 436.672V436.992C951.463 437.931 951.505 439.36 951.591 441.28C951.719 443.413 951.761 444.992 951.719 446.016V446.592C951.633 449.621 951.207 451.733 950.439 452.928C950.183 453.312 949.905 453.632 949.607 453.888C948.668 454.784 947.495 455.232 946.087 455.232C945.788 455.232 945.447 455.211 945.062 455.168L944.807 455.104L944.295 455.04L944.359 454.976C943.804 454.848 943.356 454.677 943.015 454.464C941.18 453.568 940.241 451.712 940.199 448.896V448.512C940.156 447.104 940.071 445.035 939.943 442.304C939.815 440.085 939.729 438.357 939.687 437.12V436.928V436.288C939.687 435.264 939.687 434.261 939.687 433.28L939.751 432.64V432.448C939.793 431.04 939.879 429.803 940.007 428.736C940.476 424.64 942.993 421.717 947.559 419.968C953.489 417.707 958.183 417.6 961.639 419.648L961.959 419.84L962.279 420.032H962.215C963.537 421.013 964.156 422.293 964.071 423.872ZM997.551 451.456L997.103 452.096L997.039 452.224H996.975C996.292 453.077 995.375 453.803 994.223 454.4C993.071 454.997 991.962 455.424 990.895 455.68C988.932 456.107 986.97 456.32 985.007 456.32C980.399 456.32 976.41 455.253 973.039 453.12C971.119 451.925 969.54 450.453 968.303 448.704C967.066 446.955 966.212 444.992 965.743 442.816C965.615 442.176 965.487 441.408 965.359 440.512L965.295 440V439.744C965.167 438.336 965.146 436.949 965.231 435.584L965.295 435.328V434.816H965.359C965.572 432.853 965.999 431.125 966.639 429.632C967.748 427.029 969.455 424.875 971.759 423.168L971.887 423.104L972.527 422.592V422.656C974.106 421.632 975.834 420.864 977.711 420.352V420.288L978.479 420.16L978.607 420.096C981.978 419.371 985.284 419.52 988.527 420.544C991.812 421.568 994.202 423.232 995.695 425.536C997.231 427.797 997.786 430.613 997.359 433.984C996.932 437.781 993.242 440.149 986.287 441.088C985.86 441.173 985.199 441.259 984.303 441.344C981.999 441.557 980.314 441.856 979.247 442.24C978.607 442.496 978.18 442.859 977.967 443.328C977.796 443.755 977.818 444.245 978.031 444.8C978.159 445.184 978.394 445.525 978.735 445.824C979.332 446.421 980.079 446.869 980.975 447.168C982.81 447.68 984.687 447.808 986.607 447.552C988.527 447.253 990.298 446.72 991.919 445.952C992.09 445.909 992.303 445.845 992.559 445.76L992.623 445.696H992.751L993.519 445.44L993.455 445.504C995.418 445.163 996.762 445.675 997.487 447.04C998.34 448.576 998.362 450.048 997.551 451.456ZM987.183 429.12C986.159 428.565 984.922 428.288 983.471 428.288C981.295 428.331 979.482 428.971 978.031 430.208C977.22 430.891 976.879 431.68 977.007 432.576C977.135 433.429 977.647 434.069 978.543 434.496C979.268 434.837 980.164 434.987 981.231 434.944C982.298 434.859 983.279 434.709 984.175 434.496C985.114 434.283 985.946 434.005 986.671 433.664C987.098 433.451 987.503 433.195 987.887 432.896C988.527 432.341 988.847 431.787 988.847 431.232C988.89 430.805 988.719 430.4 988.335 430.016C988.036 429.675 987.652 429.376 987.183 429.12ZM1043.24 446.464C1043.96 447.104 1044.39 447.979 1044.52 449.088V449.472V449.792H1044.45C1044.41 450.859 1044.09 451.755 1043.49 452.48C1042.21 454.101 1039.95 454.997 1036.71 455.168C1036.28 455.211 1035.85 455.232 1035.43 455.232C1031.42 455.232 1028.3 454.272 1026.08 452.352L1025.32 451.648H1025.38C1025.04 451.264 1024.74 450.88 1024.48 450.496C1024.4 450.325 1024.29 450.133 1024.16 449.92V449.984L1023.78 449.024H1023.72V448.896C1023.08 447.317 1022.76 444.843 1022.76 441.472C1022.76 439.595 1022.76 437.269 1022.76 434.496V430.656C1022.76 430.059 1022.76 429.12 1022.76 427.84C1022.8 425.963 1022.8 424.512 1022.76 423.488C1022.76 422.08 1022.76 420.8 1022.76 419.648L1022.69 418.88C1022.69 417.728 1022.71 416.789 1022.76 416.064C1022.8 415.296 1023.01 414.443 1023.4 413.504C1023.82 412.523 1024.44 411.776 1025.25 411.264C1026.53 410.453 1027.92 410.219 1029.41 410.56H1029.54L1030.76 410.816L1030.56 410.88C1030.86 411.008 1031.1 411.136 1031.27 411.264C1031.74 411.563 1032.14 411.925 1032.48 412.352V412.032L1033.12 413.248V413.376C1033.46 414.059 1033.72 415.189 1033.89 416.768L1033.96 416.96C1034.04 417.643 1034.19 418.197 1034.4 418.624C1034.66 419.051 1035.04 419.392 1035.56 419.648C1036.07 419.861 1036.49 420.011 1036.84 420.096C1037.22 420.139 1037.8 420.203 1038.56 420.288C1040.23 420.501 1041.42 420.8 1042.15 421.184C1042.96 421.611 1043.58 422.336 1044 423.36C1044.47 424.341 1044.64 425.323 1044.52 426.304C1044.39 426.987 1044.15 427.541 1043.81 427.968C1043.51 428.395 1043.11 428.715 1042.6 428.928C1042.08 429.099 1041.61 429.227 1041.19 429.312C1040.76 429.397 1040.25 429.44 1039.65 429.44H1039.14C1038.07 429.483 1037.3 429.568 1036.84 429.696C1035.51 429.995 1034.6 430.869 1034.08 432.32C1033.61 433.685 1033.55 436.117 1033.89 439.616C1033.98 440.683 1034.04 441.429 1034.08 441.856C1034.13 443.221 1034.57 444.245 1035.43 444.928C1036.37 445.739 1037.71 446.08 1039.46 445.952C1039.8 445.909 1040.12 445.867 1040.42 445.824C1041.57 445.611 1042.51 445.824 1043.24 446.464ZM1082.73 438.144C1082.82 439.211 1082.88 440.064 1082.92 440.704C1082.97 441.344 1083.01 442.283 1083.05 443.52C1083.09 444.715 1083.09 445.717 1083.05 446.528C1083.01 447.296 1082.92 448.235 1082.8 449.344C1082.71 450.411 1082.54 451.307 1082.28 452.032C1082.07 452.715 1081.77 453.419 1081.39 454.144C1081.05 454.827 1080.6 455.36 1080.04 455.744C1079.49 456.085 1078.85 456.277 1078.12 456.32L1077.16 456.384L1077.42 456.576L1076.91 456.448L1075.63 456.576L1076.4 456.256L1075.37 455.872C1075.16 455.829 1074.99 455.787 1074.86 455.744C1072.43 454.72 1071.17 451.947 1071.08 447.424C1071.04 445.632 1071.04 442.923 1071.08 439.296C1071.08 437.163 1071.08 435.52 1071.08 434.368C1071.08 432.405 1070.59 431.019 1069.61 430.208C1068.67 429.355 1067.44 428.928 1065.9 428.928H1065.71C1065.37 428.928 1065.07 428.949 1064.81 428.992C1064.68 428.992 1064.56 428.992 1064.43 428.992C1062.55 430.144 1061.38 431.595 1060.91 433.344L1060.78 433.728C1060.78 433.899 1060.78 434.176 1060.78 434.56C1060.78 435.499 1060.78 436.907 1060.78 438.784C1060.74 442.539 1060.74 445.333 1060.78 447.168C1060.78 447.424 1060.8 447.787 1060.84 448.256C1060.84 449.195 1060.84 450.133 1060.84 451.072C1060.84 452.011 1060.63 452.928 1060.2 453.824C1059.78 454.677 1059.14 455.275 1058.28 455.616C1058.16 455.659 1058.03 455.701 1057.9 455.744C1056.83 456.171 1055.45 456.213 1053.74 455.872C1052.03 455.488 1050.82 454.763 1050.09 453.696H1050.03L1049.84 453.312C1049.84 453.269 1049.81 453.248 1049.77 453.248L1049.71 453.056C1049.28 452.032 1049.05 450.645 1049 448.896V448.128C1049.05 447.061 1049.17 445.504 1049.39 443.456C1049.52 442.005 1049.6 440.981 1049.64 440.384V439.424C1049.9 434.048 1050.01 429.995 1049.96 427.264C1049.96 426.539 1049.77 425.024 1049.39 422.72C1048.66 418.325 1048.36 415.104 1048.49 413.056H1048.43L1048.49 412.672V412.352H1048.56C1048.85 409.365 1050.05 407.509 1052.14 406.784L1052.52 406.656L1052.78 406.592C1053.16 406.549 1053.53 406.507 1053.87 406.464C1054.93 406.421 1055.98 406.635 1057 407.104C1058.03 407.573 1058.88 408.213 1059.56 409.024C1060.76 410.432 1061.16 411.989 1060.78 413.696V416.96C1060.78 418.155 1061.08 419.029 1061.68 419.584C1062.4 420.224 1064.13 420.395 1066.86 420.096C1069.21 419.797 1071.32 419.904 1073.2 420.416C1073.66 420.544 1074.18 420.736 1074.73 420.992L1074.86 421.056L1075.69 421.376H1075.63C1077.5 422.315 1079.02 423.659 1080.17 425.408V425.344L1080.56 426.112L1080.62 426.24C1081.9 428.629 1082.56 431.637 1082.6 435.264C1082.6 435.691 1082.65 436.651 1082.73 438.144ZM1119.74 451.456L1119.29 452.096L1119.23 452.224H1119.16C1118.48 453.077 1117.56 453.803 1116.41 454.4C1115.26 454.997 1114.15 455.424 1113.08 455.68C1111.12 456.107 1109.16 456.32 1107.19 456.32C1102.59 456.32 1098.6 455.253 1095.23 453.12C1093.31 451.925 1091.73 450.453 1090.49 448.704C1089.25 446.955 1088.4 444.992 1087.93 442.816C1087.8 442.176 1087.67 441.408 1087.55 440.512L1087.48 440V439.744C1087.35 438.336 1087.33 436.949 1087.42 435.584L1087.48 435.328V434.816H1087.55C1087.76 432.853 1088.19 431.125 1088.83 429.632C1089.94 427.029 1091.64 424.875 1093.95 423.168L1094.07 423.104L1094.71 422.592V422.656C1096.29 421.632 1098.02 420.864 1099.9 420.352V420.288L1100.67 420.16L1100.79 420.096C1104.17 419.371 1107.47 419.52 1110.71 420.544C1114 421.568 1116.39 423.232 1117.88 425.536C1119.42 427.797 1119.97 430.613 1119.55 433.984C1119.12 437.781 1115.43 440.149 1108.47 441.088C1108.05 441.173 1107.39 441.259 1106.49 441.344C1104.19 441.557 1102.5 441.856 1101.43 442.24C1100.79 442.496 1100.37 442.859 1100.15 443.328C1099.98 443.755 1100.01 444.245 1100.22 444.8C1100.35 445.184 1100.58 445.525 1100.92 445.824C1101.52 446.421 1102.27 446.869 1103.16 447.168C1105 447.68 1106.87 447.808 1108.79 447.552C1110.71 447.253 1112.49 446.72 1114.11 445.952C1114.28 445.909 1114.49 445.845 1114.75 445.76L1114.81 445.696H1114.94L1115.71 445.44L1115.64 445.504C1117.61 445.163 1118.95 445.675 1119.67 447.04C1120.53 448.576 1120.55 450.048 1119.74 451.456ZM1109.37 429.12C1108.35 428.565 1107.11 428.288 1105.66 428.288C1103.48 428.331 1101.67 428.971 1100.22 430.208C1099.41 430.891 1099.07 431.68 1099.19 432.576C1099.32 433.429 1099.83 434.069 1100.73 434.496C1101.46 434.837 1102.35 434.987 1103.42 434.944C1104.49 434.859 1105.47 434.709 1106.36 434.496C1107.3 434.283 1108.13 434.005 1108.86 433.664C1109.29 433.451 1109.69 433.195 1110.07 432.896C1110.71 432.341 1111.03 431.787 1111.03 431.232C1111.08 430.805 1110.91 430.4 1110.52 430.016C1110.22 429.675 1109.84 429.376 1109.37 429.12ZM1149.32 423.872L1149.26 424.32L1149.19 424.576C1149.02 425.216 1148.74 425.771 1148.36 426.24C1147.93 426.795 1147.4 427.2 1146.76 427.456C1146.12 427.712 1145.57 427.861 1145.1 427.904C1144.67 427.947 1144.05 427.968 1143.24 427.968C1141.88 427.968 1140.89 428.075 1140.3 428.288C1139.66 428.459 1139.1 428.8 1138.63 429.312C1138.16 429.781 1137.8 430.272 1137.54 430.784C1137.33 431.253 1137.16 431.893 1137.03 432.704C1136.9 433.515 1136.82 434.176 1136.78 434.688C1136.78 435.157 1136.76 435.819 1136.71 436.672V436.992C1136.71 437.931 1136.76 439.36 1136.84 441.28C1136.97 443.413 1137.01 444.992 1136.97 446.016V446.592C1136.88 449.621 1136.46 451.733 1135.69 452.928C1135.43 453.312 1135.16 453.632 1134.86 453.888C1133.92 454.784 1132.74 455.232 1131.34 455.232C1131.04 455.232 1130.7 455.211 1130.31 455.168L1130.06 455.104L1129.54 455.04L1129.61 454.976C1129.05 454.848 1128.61 454.677 1128.26 454.464C1126.43 453.568 1125.49 451.712 1125.45 448.896V448.512C1125.41 447.104 1125.32 445.035 1125.19 442.304C1125.06 440.085 1124.98 438.357 1124.94 437.12V436.928V436.288C1124.94 435.264 1124.94 434.261 1124.94 433.28L1125 432.64V432.448C1125.04 431.04 1125.13 429.803 1125.26 428.736C1125.73 424.64 1128.24 421.717 1132.81 419.968C1138.74 417.707 1143.43 417.6 1146.89 419.648L1147.21 419.84L1147.53 420.032H1147.46C1148.79 421.013 1149.41 422.293 1149.32 423.872ZM1182.8 451.456L1182.35 452.096L1182.29 452.224H1182.23C1181.54 453.077 1180.63 453.803 1179.47 454.4C1178.32 454.997 1177.21 455.424 1176.15 455.68C1174.18 456.107 1172.22 456.32 1170.26 456.32C1165.65 456.32 1161.66 455.253 1158.29 453.12C1156.37 451.925 1154.79 450.453 1153.55 448.704C1152.32 446.955 1151.46 444.992 1150.99 442.816C1150.87 442.176 1150.74 441.408 1150.61 440.512L1150.55 440V439.744C1150.42 438.336 1150.4 436.949 1150.48 435.584L1150.55 435.328V434.816H1150.61C1150.82 432.853 1151.25 431.125 1151.89 429.632C1153 427.029 1154.71 424.875 1157.01 423.168L1157.14 423.104L1157.78 422.592V422.656C1159.36 421.632 1161.08 420.864 1162.96 420.352V420.288L1163.73 420.16L1163.86 420.096C1167.23 419.371 1170.53 419.52 1173.78 420.544C1177.06 421.568 1179.45 423.232 1180.94 425.536C1182.48 427.797 1183.04 430.613 1182.61 433.984C1182.18 437.781 1178.49 440.149 1171.54 441.088C1171.11 441.173 1170.45 441.259 1169.55 441.344C1167.25 441.557 1165.56 441.856 1164.5 442.24C1163.86 442.496 1163.43 442.859 1163.22 443.328C1163.05 443.755 1163.07 444.245 1163.28 444.8C1163.41 445.184 1163.64 445.525 1163.99 445.824C1164.58 446.421 1165.33 446.869 1166.23 447.168C1168.06 447.68 1169.94 447.808 1171.86 447.552C1173.78 447.253 1175.55 446.72 1177.17 445.952C1177.34 445.909 1177.55 445.845 1177.81 445.76L1177.87 445.696H1178L1178.77 445.44L1178.71 445.504C1180.67 445.163 1182.01 445.675 1182.74 447.04C1183.59 448.576 1183.61 450.048 1182.8 451.456ZM1172.43 429.12C1171.41 428.565 1170.17 428.288 1168.72 428.288C1166.55 428.331 1164.73 428.971 1163.28 430.208C1162.47 430.891 1162.13 431.68 1162.26 432.576C1162.39 433.429 1162.9 434.069 1163.79 434.496C1164.52 434.837 1165.41 434.987 1166.48 434.944C1167.55 434.859 1168.53 434.709 1169.43 434.496C1170.36 434.283 1171.2 434.005 1171.92 433.664C1172.35 433.451 1172.75 433.195 1173.14 432.896C1173.78 432.341 1174.1 431.787 1174.1 431.232C1174.14 430.805 1173.97 430.4 1173.59 430.016C1173.29 429.675 1172.9 429.376 1172.43 429.12ZM1198.18 425.536L1197.98 425.792L1197.79 426.112C1197.58 426.368 1197.43 426.539 1197.34 426.624L1197.22 426.88C1195.42 429.227 1193.8 430.699 1192.35 431.296H1192.42L1191.97 431.424L1191.71 431.552V431.488C1191.24 431.616 1190.82 431.68 1190.43 431.68C1190.3 431.68 1190.18 431.68 1190.05 431.68C1189.62 431.637 1189.19 431.531 1188.77 431.36C1187.96 431.019 1187.4 430.443 1187.1 429.632C1186.85 428.864 1186.91 428.16 1187.3 427.52C1187.42 427.307 1187.94 426.603 1188.83 425.408C1190.58 423.104 1191.52 421.781 1191.65 421.44L1191.71 421.312C1191.71 421.269 1191.73 421.227 1191.78 421.184C1191.78 421.184 1191.75 421.184 1191.71 421.184C1191.58 421.013 1191.48 420.843 1191.39 420.672L1191.33 420.608C1191.28 420.48 1191.24 420.373 1191.2 420.288C1191.2 420.245 1191.18 420.203 1191.14 420.16C1191.14 420.075 1191.14 420.032 1191.14 420.032L1191.07 419.968C1190.64 418.475 1190.73 417.131 1191.33 415.936L1191.39 415.808C1191.95 414.784 1192.78 414.08 1193.89 413.696C1194.91 413.227 1196.19 413.227 1197.73 413.696C1199.31 414.123 1200.33 414.933 1200.8 416.128C1201.74 418.432 1200.86 421.568 1198.18 425.536ZM1222.9 432.832C1226.83 433.557 1229.73 434.859 1231.61 436.736C1233.53 438.571 1234.49 440.939 1234.49 443.84C1234.49 447.424 1233.17 450.219 1230.52 452.224C1227.87 454.229 1223.99 455.232 1218.87 455.232C1216.91 455.232 1215.12 455.083 1213.5 454.784C1212.86 454.699 1212.22 454.549 1211.58 454.336H1211.32L1210.81 454.144C1209.44 453.675 1208.31 453.099 1207.42 452.416H1207.35L1206.9 451.968L1206.78 451.84C1206.43 451.499 1206.14 451.157 1205.88 450.816C1204.9 449.237 1204.94 447.68 1206.01 446.144C1207.12 444.608 1208.59 444.075 1210.42 444.544C1211.02 444.715 1211.94 445.013 1213.18 445.44C1214.41 445.824 1215.35 446.123 1215.99 446.336C1216.67 446.507 1217.51 446.592 1218.49 446.592C1219.51 446.549 1220.45 446.315 1221.3 445.888C1221.69 445.717 1222.01 445.504 1222.26 445.248C1222.82 444.779 1223.12 444.288 1223.16 443.776C1223.16 443.349 1222.99 442.944 1222.65 442.56L1222.46 442.432C1221.69 441.707 1220.09 441.152 1217.66 440.768C1217.1 440.683 1216.7 440.619 1216.44 440.576C1212.81 439.893 1210.02 438.677 1208.06 436.928C1206.99 435.989 1206.22 434.816 1205.75 433.408L1205.69 433.28V433.216L1205.43 432.448L1205.5 432.512C1205.24 431.616 1205.11 430.656 1205.11 429.632L1205.18 428.864V428.672C1205.43 425.856 1206.65 423.552 1208.82 421.76C1211.04 419.925 1214.01 418.816 1217.72 418.432L1217.85 418.368L1218.74 418.304L1218.68 418.368C1219.41 418.325 1220.13 418.304 1220.86 418.304V418.24L1221.69 418.304H1221.82C1223.48 418.432 1225.02 418.688 1226.42 419.072C1227.19 419.285 1227.98 419.584 1228.79 419.968C1229.6 420.352 1230.39 420.885 1231.16 421.568C1231.97 422.251 1232.53 422.955 1232.82 423.68C1233.29 424.747 1233.25 425.792 1232.7 426.816C1232.01 428.096 1230.84 428.715 1229.18 428.672H1228.79L1228.47 428.608C1227.83 428.523 1226.96 428.331 1225.85 428.032C1225.51 427.947 1225.25 427.883 1225.08 427.84C1224.78 427.755 1224.4 427.669 1223.93 427.584C1222.56 427.328 1221.11 427.264 1219.58 427.392C1218.04 427.477 1217.04 427.819 1216.57 428.416C1216.23 428.8 1216.18 429.333 1216.44 430.016C1216.57 430.357 1216.8 430.677 1217.14 430.976C1217.49 431.275 1217.83 431.509 1218.17 431.68C1218.51 431.851 1218.96 432.021 1219.51 432.192C1220.07 432.32 1220.49 432.427 1220.79 432.512C1221.13 432.555 1221.58 432.619 1222.14 432.704C1222.48 432.789 1222.73 432.832 1222.9 432.832ZM1290.88 442.112C1290.92 443.563 1290.94 444.715 1290.94 445.568V445.824L1290.88 446.336C1290.79 447.915 1290.56 449.259 1290.17 450.368L1289.98 450.88L1289.85 451.072C1289.38 452.096 1288.76 452.928 1288 453.568C1286.84 454.549 1284.8 455.253 1281.85 455.68C1278.74 456.107 1276.09 456.32 1273.92 456.32C1270.97 456.32 1268.35 455.936 1266.04 455.168C1262.89 454.101 1260.62 452.331 1259.26 449.856L1259.13 449.6L1258.94 449.216C1258.34 447.808 1258.04 446.315 1258.04 444.736C1258.04 442.773 1258.41 441.067 1259.13 439.616L1259.32 439.232L1259.45 438.976C1259.92 438.251 1260.45 437.632 1261.05 437.12C1263.1 435.285 1266.17 434.283 1270.27 434.112C1270.44 434.112 1270.67 434.112 1270.97 434.112C1272.08 434.069 1272.93 434.027 1273.53 433.984C1274.17 433.899 1274.92 433.685 1275.77 433.344C1276.62 433.003 1277.24 432.533 1277.63 431.936C1278.01 431.296 1278.14 430.741 1278.01 430.272C1277.88 429.803 1277.52 429.419 1276.92 429.12C1276.24 428.779 1275.39 428.587 1274.36 428.544C1273.64 428.459 1272.85 428.501 1272 428.672C1271.23 428.8 1270.08 429.099 1268.54 429.568C1266.7 430.165 1265.28 430.528 1264.25 430.656C1262.89 430.784 1261.76 430.379 1260.86 429.44C1259.88 428.416 1259.54 427.093 1259.84 425.472C1260.22 423.509 1261.26 421.995 1262.97 420.928C1264.68 419.861 1266.88 419.328 1269.56 419.328H1269.63C1271.12 419.328 1272.53 419.371 1273.85 419.456C1279.18 419.925 1283.2 421.376 1285.88 423.808L1286.08 423.936L1286.46 424.256L1286.4 424.32C1287.25 425.131 1287.95 426.027 1288.51 427.008C1289.4 428.715 1290.04 430.72 1290.43 433.024H1290.49L1290.56 433.472V433.728C1290.81 435.477 1290.92 437.312 1290.88 439.232C1290.83 439.829 1290.83 440.789 1290.88 442.112ZM1270.33 442.304C1269.52 442.773 1269.14 443.477 1269.18 444.416C1269.18 445.397 1269.54 446.187 1270.27 446.784C1270.95 447.296 1272.04 447.595 1273.53 447.68C1273.74 447.68 1273.96 447.68 1274.17 447.68H1274.24H1274.3C1275.49 447.979 1276.6 447.701 1277.63 446.848C1278.69 445.995 1279.23 444.971 1279.23 443.776C1279.23 443.605 1279.21 443.435 1279.16 443.264C1279.04 442.923 1278.84 442.624 1278.59 442.368C1278.33 442.112 1278.08 441.92 1277.82 441.792C1277.61 441.621 1277.29 441.515 1276.86 441.472C1276.48 441.387 1276.16 441.344 1275.9 441.344C1275.69 441.301 1275.34 441.259 1274.88 441.216H1274.68L1273.79 441.28C1272.38 441.451 1271.23 441.792 1270.33 442.304ZM828.368 485.064C829.989 485.704 831.141 486.621 831.824 487.816C832.549 489.011 832.699 490.376 832.272 491.912C831.931 493.277 831.12 494.195 829.84 494.664C828.56 495.133 827.152 495.197 825.616 494.856C825.317 494.771 824.827 494.643 824.144 494.472C823.547 494.301 823.077 494.173 822.736 494.088C822.437 494.003 822.011 493.917 821.456 493.832C820.901 493.704 820.432 493.661 820.048 493.704C819.707 493.747 819.323 493.832 818.896 493.96C818.512 494.045 818.149 494.237 817.808 494.536C817.509 494.835 817.232 495.197 816.976 495.624C816.635 496.307 816.528 496.989 816.656 497.672C816.784 498.355 817.125 498.952 817.68 499.464C817.936 499.677 818.256 499.869 818.64 500.04C819.451 500.339 820.816 500.445 822.736 500.36C823.291 500.317 823.717 500.296 824.016 500.296C827.003 500.211 828.944 500.723 829.84 501.832C830.523 502.685 830.715 503.837 830.416 505.288C830.075 506.781 829.285 507.933 828.048 508.744L827.92 508.808L827.216 509.256V509.128C826.917 509.256 826.64 509.341 826.384 509.384C825.829 509.512 825.189 509.576 824.464 509.576C824.421 509.576 824.165 509.576 823.696 509.576H823.76L823.056 509.512H822.928H822.864C822.011 509.512 821.243 509.512 820.56 509.512C819.877 509.512 819.259 509.747 818.704 510.216C818.149 510.685 817.723 511.389 817.424 512.328C816.997 513.651 816.848 515.677 816.976 518.408C816.976 519.048 816.976 519.56 816.976 519.944C817.019 520.371 817.04 520.968 817.04 521.736V522.056V522.44C816.997 524.445 817.019 525.96 817.104 526.984V527.304C817.232 529.224 816.635 530.781 815.312 531.976C814.331 532.872 813.136 533.32 811.728 533.32C811.387 533.32 811.045 533.299 810.704 533.256C809.381 533.043 808.315 532.531 807.504 531.72C806.693 530.909 806.16 529.992 805.904 528.968C805.691 527.944 805.541 526.856 805.456 525.704C805.371 524.509 805.392 523.421 805.52 522.44C805.648 519.795 805.691 517.107 805.648 514.376C805.605 513.267 805.499 511.923 805.328 510.344C805.328 510.003 805.285 509.384 805.2 508.488C805.115 507.763 805.029 507.016 804.944 506.248L804.88 505.736V505.48C804.539 501.384 804.731 498.013 805.456 495.368C806.181 492.765 807.419 490.547 809.168 488.712C810.917 486.835 812.965 485.555 815.312 484.872C816.208 484.616 817.189 484.424 818.256 484.296V484.232H818.576L818.96 484.168C821.605 483.869 824.123 483.997 826.512 484.552L826.896 484.616L827.216 484.744C827.643 484.872 828.027 484.979 828.368 485.064ZM868.193 509.128C868.662 510.92 868.812 512.605 868.641 514.184C868.598 514.824 868.492 515.464 868.321 516.104C867.681 518.408 866.614 520.627 865.121 522.76L864.929 523.016L864.737 523.336C863.841 524.488 862.838 525.576 861.729 526.6L861.537 526.792L861.217 527.048C857.249 530.504 852.94 532.232 848.289 532.232C846.412 532.232 844.598 531.912 842.849 531.272C841.014 530.632 839.35 529.693 837.857 528.456C837.686 528.285 837.537 528.136 837.409 528.008C834.934 525.789 833.334 522.931 832.609 519.432C831.926 515.891 832.246 512.371 833.569 508.872C834.678 506.013 836.3 503.517 838.433 501.384C840.566 499.251 842.998 497.715 845.729 496.776L845.985 496.712L846.433 496.584C847.798 496.157 849.185 495.923 850.593 495.88H851.041H851.297C854.241 495.88 857.057 496.605 859.745 498.056C861.068 498.781 862.241 499.635 863.265 500.616C863.478 500.829 863.734 501.107 864.033 501.448L864.225 501.64L864.545 502.024C866.124 503.944 867.276 506.077 868.001 508.424L868.129 508.936L868.193 509.128ZM845.217 517.704C845.644 518.643 846.262 519.432 847.073 520.072C847.884 520.712 848.78 521.096 849.761 521.224C851.425 521.437 852.79 520.84 853.857 519.432C854.668 518.408 855.286 517.256 855.713 515.976C856.182 514.653 856.353 513.245 856.225 511.752C856.14 510.259 855.606 509 854.625 507.976C853.601 506.909 852.364 506.483 850.913 506.696C849.889 506.824 848.886 507.251 847.905 507.976C846.966 508.701 846.22 509.597 845.665 510.664C845.366 511.176 845.153 511.667 845.025 512.136C844.598 513.843 844.556 515.379 844.897 516.744C844.982 517.043 845.089 517.363 845.217 517.704ZM897.258 500.872L897.194 501.32L897.13 501.576C896.959 502.216 896.682 502.771 896.298 503.24C895.871 503.795 895.338 504.2 894.698 504.456C894.058 504.712 893.503 504.861 893.034 504.904C892.607 504.947 891.989 504.968 891.178 504.968C889.813 504.968 888.831 505.075 888.234 505.288C887.594 505.459 887.039 505.8 886.57 506.312C886.101 506.781 885.738 507.272 885.482 507.784C885.269 508.253 885.098 508.893 884.97 509.704C884.842 510.515 884.757 511.176 884.714 511.688C884.714 512.157 884.693 512.819 884.65 513.672V513.992C884.65 514.931 884.693 516.36 884.778 518.28C884.906 520.413 884.949 521.992 884.906 523.016V523.592C884.821 526.621 884.394 528.733 883.626 529.928C883.37 530.312 883.093 530.632 882.794 530.888C881.855 531.784 880.682 532.232 879.274 532.232C878.975 532.232 878.634 532.211 878.25 532.168L877.994 532.104L877.482 532.04L877.546 531.976C876.991 531.848 876.543 531.677 876.202 531.464C874.367 530.568 873.429 528.712 873.386 525.896V525.512C873.343 524.104 873.258 522.035 873.13 519.304C873.002 517.085 872.917 515.357 872.874 514.12V513.928V513.288C872.874 512.264 872.874 511.261 872.874 510.28L872.938 509.64V509.448C872.981 508.04 873.066 506.803 873.194 505.736C873.663 501.64 876.181 498.717 880.746 496.968C886.677 494.707 891.37 494.6 894.826 496.648L895.146 496.84L895.466 497.032H895.402C896.725 498.013 897.343 499.293 897.258 500.872ZM951.676 528.456L951.228 529.096L951.164 529.224H951.1C950.417 530.077 949.5 530.803 948.348 531.4C947.196 531.997 946.087 532.424 945.02 532.68C943.057 533.107 941.095 533.32 939.132 533.32C934.524 533.32 930.535 532.253 927.164 530.12C925.244 528.925 923.665 527.453 922.428 525.704C921.191 523.955 920.337 521.992 919.868 519.816C919.74 519.176 919.612 518.408 919.484 517.512L919.42 517V516.744C919.292 515.336 919.271 513.949 919.356 512.584L919.42 512.328V511.816H919.484C919.697 509.853 920.124 508.125 920.764 506.632C921.873 504.029 923.58 501.875 925.884 500.168L926.012 500.104L926.652 499.592V499.656C928.231 498.632 929.959 497.864 931.836 497.352V497.288L932.604 497.16L932.732 497.096C936.103 496.371 939.409 496.52 942.652 497.544C945.937 498.568 948.327 500.232 949.82 502.536C951.356 504.797 951.911 507.613 951.484 510.984C951.057 514.781 947.367 517.149 940.412 518.088C939.985 518.173 939.324 518.259 938.428 518.344C936.124 518.557 934.439 518.856 933.372 519.24C932.732 519.496 932.305 519.859 932.092 520.328C931.921 520.755 931.943 521.245 932.156 521.8C932.284 522.184 932.519 522.525 932.86 522.824C933.457 523.421 934.204 523.869 935.1 524.168C936.935 524.68 938.812 524.808 940.732 524.552C942.652 524.253 944.423 523.72 946.044 522.952C946.215 522.909 946.428 522.845 946.684 522.76L946.748 522.696H946.876L947.644 522.44L947.58 522.504C949.543 522.163 950.887 522.675 951.612 524.04C952.465 525.576 952.487 527.048 951.676 528.456ZM941.308 506.12C940.284 505.565 939.047 505.288 937.596 505.288C935.42 505.331 933.607 505.971 932.156 507.208C931.345 507.891 931.004 508.68 931.132 509.576C931.26 510.429 931.772 511.069 932.668 511.496C933.393 511.837 934.289 511.987 935.356 511.944C936.423 511.859 937.404 511.709 938.3 511.496C939.239 511.283 940.071 511.005 940.796 510.664C941.223 510.451 941.628 510.195 942.012 509.896C942.652 509.341 942.972 508.787 942.972 508.232C943.015 507.805 942.844 507.4 942.46 507.016C942.161 506.675 941.777 506.376 941.308 506.12ZM988.618 498.696C988.874 499.208 989.023 499.741 989.066 500.296C989.151 500.851 989.13 501.469 989.002 502.152C988.874 502.792 988.746 503.325 988.618 503.752C988.533 504.179 988.362 504.755 988.106 505.48C987.893 506.035 987.743 506.461 987.658 506.76C985.866 512.947 984.202 517.832 982.666 521.416C981.685 523.848 980.597 525.875 979.402 527.496L979.274 527.624L978.89 528.264V528.2C978.165 529.096 977.439 529.843 976.714 530.44H976.778L976.138 530.888L976.01 530.952C974.73 531.805 973.429 532.232 972.106 532.232C970.826 532.232 969.546 531.869 968.266 531.144C967.157 530.504 966.175 529.715 965.322 528.776C964.469 527.837 963.701 526.685 963.018 525.32C962.378 523.912 961.887 522.76 961.546 521.864C961.205 520.925 960.757 519.624 960.202 517.96C959.818 516.765 959.519 515.869 959.306 515.272C959.178 514.931 958.943 514.291 958.602 513.352C957.237 509.512 956.319 506.611 955.85 504.648C955.765 504.349 955.679 503.987 955.594 503.56V503.496L955.402 502.344L955.466 502.408C955.253 500.317 955.551 498.717 956.362 497.608C956.959 496.755 957.834 496.243 958.986 496.072C959.029 496.072 959.05 496.072 959.05 496.072C959.434 495.944 960.01 495.923 960.778 496.008C962.101 496.136 963.231 496.648 964.17 497.544C965.151 498.44 965.855 499.613 966.282 501.064C967.263 504.477 968.138 507.549 968.906 510.28C969.034 510.749 969.226 511.496 969.482 512.52C969.866 514.227 970.207 515.485 970.506 516.296C970.762 516.979 971.039 517.576 971.338 518.088C971.807 518.941 972.213 519.368 972.554 519.368C972.853 519.368 973.151 519.027 973.45 518.344C973.834 517.533 974.111 516.211 974.282 514.376C974.325 513.608 974.389 513.032 974.474 512.648C974.517 512.307 974.602 511.731 974.73 510.92C974.943 509.299 975.135 508.019 975.306 507.08C975.477 506.141 975.754 504.968 976.138 503.56C976.522 502.109 977.013 500.872 977.61 499.848C978.25 498.781 979.018 497.907 979.914 497.224C980.853 496.456 982.026 496.029 983.434 495.944C983.477 495.944 983.562 495.944 983.69 495.944L984.522 496.008C986.015 496.179 987.189 496.776 988.042 497.8V497.672L988.554 498.504C988.597 498.589 988.618 498.653 988.618 498.696ZM1024.36 528.456L1023.92 529.096L1023.85 529.224H1023.79C1023.1 530.077 1022.19 530.803 1021.04 531.4C1019.88 531.997 1018.77 532.424 1017.71 532.68C1015.74 533.107 1013.78 533.32 1011.82 533.32C1007.21 533.32 1003.22 532.253 999.852 530.12C997.932 528.925 996.353 527.453 995.116 525.704C993.878 523.955 993.025 521.992 992.556 519.816C992.428 519.176 992.3 518.408 992.172 517.512L992.108 517V516.744C991.98 515.336 991.958 513.949 992.044 512.584L992.108 512.328V511.816H992.172C992.385 509.853 992.812 508.125 993.452 506.632C994.561 504.029 996.268 501.875 998.572 500.168L998.7 500.104L999.34 499.592V499.656C1000.92 498.632 1002.65 497.864 1004.52 497.352V497.288L1005.29 497.16L1005.42 497.096C1008.79 496.371 1012.1 496.52 1015.34 497.544C1018.62 498.568 1021.01 500.232 1022.51 502.536C1024.04 504.797 1024.6 507.613 1024.17 510.984C1023.74 514.781 1020.05 517.149 1013.1 518.088C1012.67 518.173 1012.01 518.259 1011.12 518.344C1008.81 518.557 1007.13 518.856 1006.06 519.24C1005.42 519.496 1004.99 519.859 1004.78 520.328C1004.61 520.755 1004.63 521.245 1004.84 521.8C1004.97 522.184 1005.21 522.525 1005.55 522.824C1006.14 523.421 1006.89 523.869 1007.79 524.168C1009.62 524.68 1011.5 524.808 1013.42 524.552C1015.34 524.253 1017.11 523.72 1018.73 522.952C1018.9 522.909 1019.12 522.845 1019.37 522.76L1019.44 522.696H1019.56L1020.33 522.44L1020.27 522.504C1022.23 522.163 1023.57 522.675 1024.3 524.04C1025.15 525.576 1025.17 527.048 1024.36 528.456ZM1014 506.12C1012.97 505.565 1011.73 505.288 1010.28 505.288C1008.11 505.331 1006.29 505.971 1004.84 507.208C1004.03 507.891 1003.69 508.68 1003.82 509.576C1003.95 510.429 1004.46 511.069 1005.36 511.496C1006.08 511.837 1006.98 511.987 1008.04 511.944C1009.11 511.859 1010.09 511.709 1010.99 511.496C1011.93 511.283 1012.76 511.005 1013.48 510.664C1013.91 510.451 1014.32 510.195 1014.7 509.896C1015.34 509.341 1015.66 508.787 1015.66 508.232C1015.7 507.805 1015.53 507.4 1015.15 507.016C1014.85 506.675 1014.46 506.376 1014 506.12ZM1053.95 500.872L1053.88 501.32L1053.82 501.576C1053.65 502.216 1053.37 502.771 1052.99 503.24C1052.56 503.795 1052.03 504.2 1051.39 504.456C1050.75 504.712 1050.19 504.861 1049.72 504.904C1049.29 504.947 1048.68 504.968 1047.87 504.968C1046.5 504.968 1045.52 505.075 1044.92 505.288C1044.28 505.459 1043.73 505.8 1043.26 506.312C1042.79 506.781 1042.43 507.272 1042.17 507.784C1041.96 508.253 1041.79 508.893 1041.66 509.704C1041.53 510.515 1041.44 511.176 1041.4 511.688C1041.4 512.157 1041.38 512.819 1041.34 513.672V513.992C1041.34 514.931 1041.38 516.36 1041.47 518.28C1041.59 520.413 1041.64 521.992 1041.59 523.016V523.592C1041.51 526.621 1041.08 528.733 1040.31 529.928C1040.06 530.312 1039.78 530.632 1039.48 530.888C1038.54 531.784 1037.37 532.232 1035.96 532.232C1035.66 532.232 1035.32 532.211 1034.94 532.168L1034.68 532.104L1034.17 532.04L1034.23 531.976C1033.68 531.848 1033.23 531.677 1032.89 531.464C1031.05 530.568 1030.12 528.712 1030.07 525.896V525.512C1030.03 524.104 1029.95 522.035 1029.82 519.304C1029.69 517.085 1029.6 515.357 1029.56 514.12V513.928V513.288C1029.56 512.264 1029.56 511.261 1029.56 510.28L1029.63 509.64V509.448C1029.67 508.04 1029.75 506.803 1029.88 505.736C1030.35 501.64 1032.87 498.717 1037.43 496.968C1043.36 494.707 1048.06 494.6 1051.51 496.648L1051.83 496.84L1052.15 497.032H1052.09C1053.41 498.013 1054.03 499.293 1053.95 500.872ZM1089.96 500.36C1090.13 501.725 1089.83 503.816 1089.06 506.632C1088.93 507.229 1088.83 507.656 1088.74 507.912C1088.74 508.04 1088.7 508.189 1088.61 508.36L1088.42 509.384H1088.36C1088.19 510.152 1087.97 510.941 1087.72 511.752L1087.46 512.456V512.648H1087.4C1086.8 514.568 1085.97 516.872 1084.9 519.56C1083.58 522.888 1082.21 525.896 1080.81 528.584H1080.87L1080.55 529.096L1080.49 529.288C1079.8 530.525 1079.12 531.699 1078.44 532.808L1078.37 533L1078.05 533.448C1076.26 536.264 1074.38 538.675 1072.42 540.68C1071.82 541.363 1071.14 541.939 1070.37 542.408C1069.61 542.877 1068.79 543.24 1067.94 543.496C1067.09 543.795 1066.26 543.944 1065.45 543.944C1064.21 543.944 1063.14 543.603 1062.25 542.92H1062.18L1061.86 542.664L1061.67 542.472V542.408C1061.07 541.768 1060.6 540.979 1060.26 540.04C1060.13 539.656 1060.05 539.272 1060.01 538.888H1059.94V538.184H1060.01C1060.09 537.544 1060.33 536.989 1060.71 536.52C1061.09 536.093 1061.65 535.603 1062.37 535.048C1063.06 534.536 1063.55 534.131 1063.85 533.832C1064.23 533.448 1064.7 532.808 1065.25 531.912C1065.64 531.272 1065.94 530.803 1066.15 530.504C1066.36 529.907 1066.34 529.245 1066.09 528.52C1065.83 527.667 1065.21 526.472 1064.23 524.936C1063.42 523.741 1062.89 522.824 1062.63 522.184C1061.52 519.837 1060.28 516.765 1058.92 512.968C1058.75 512.541 1058.49 511.859 1058.15 510.92C1056.57 506.824 1055.7 503.688 1055.53 501.512C1055.35 499.848 1055.67 498.461 1056.49 497.352C1056.78 496.925 1057.13 496.584 1057.51 496.328C1058.53 495.645 1059.88 495.411 1061.54 495.624C1061.75 495.667 1062.05 495.731 1062.44 495.816L1062.18 495.56L1063.72 496.264C1064.27 496.52 1064.72 496.819 1065.06 497.16C1065.66 497.757 1066.19 498.824 1066.66 500.36C1067.56 503.091 1068.5 506.035 1069.48 509.192L1069.8 510.216C1069.93 510.643 1070.12 511.325 1070.37 512.264C1070.93 514.525 1071.53 516.125 1072.17 517.064L1072.23 517.128C1072.36 517.341 1072.46 517.491 1072.55 517.576C1072.93 517.96 1073.21 518.067 1073.38 517.896C1073.42 517.853 1073.49 517.747 1073.57 517.576C1074.55 515.229 1075.69 511.517 1076.97 506.44C1077.14 505.715 1077.31 505.075 1077.48 504.52L1077.61 503.944C1077.86 502.877 1078.07 502.067 1078.25 501.512C1078.42 500.957 1078.71 500.232 1079.14 499.336C1079.57 498.44 1080.02 497.757 1080.49 497.288C1080.95 496.819 1081.59 496.435 1082.41 496.136C1083.26 495.795 1084.2 495.645 1085.22 495.688C1085.61 495.731 1086.01 495.816 1086.44 495.944L1086.69 496.008L1087.08 496.2C1087.97 496.627 1088.66 497.181 1089.13 497.864C1089.42 498.376 1089.66 498.973 1089.83 499.656L1089.89 500.04L1089.96 500.36Z" fill="#6863A9"/>
<path d="M1325.87 417.492C1326.6 417.461 1327.3 417.445 1327.95 417.445C1334.77 417.445 1338.17 419.242 1338.17 422.836V423.422C1338.17 426.469 1336.34 428.141 1332.69 428.438H1330.51C1330.15 428.484 1329.97 428.664 1329.97 428.977C1329.97 430.148 1329.91 437.531 1329.78 451.125C1328.83 454.047 1327.01 455.508 1324.32 455.508C1320.66 455.508 1318.84 452.68 1318.84 447.023C1318.77 444.211 1318.74 441.672 1318.74 439.406C1318.74 435.297 1318.84 432.086 1319.05 429.773C1317.22 430.523 1316.03 430.898 1315.48 430.898H1314.92C1311.64 430.227 1310 428.219 1310 424.875C1310 420.797 1315.29 418.336 1325.87 417.492Z" fill="#6863A9"/>
<path d="M1359.66 417.773C1368.57 417.773 1374.31 421.055 1376.89 427.617C1377.25 428.664 1377.43 429.844 1377.43 431.156C1377.43 434.594 1374.55 438.094 1368.8 441.656C1376.43 444.156 1380.24 446.742 1380.24 449.414C1380.24 449.633 1380.22 449.852 1380.17 450.07C1379.48 452.992 1377.32 454.727 1373.68 455.273C1367.38 454.352 1362.58 451.578 1359.27 446.953C1359.27 449.031 1359.34 450.602 1359.48 451.664C1359.62 452.727 1359.69 453.742 1359.69 454.711C1359.58 457.477 1357.94 458.922 1354.77 459.047C1354.58 459.062 1354.39 459.07 1354.2 459.07C1351.53 459.07 1349.62 457.789 1348.46 455.227C1347.73 450.555 1347.27 445.992 1347.08 441.539C1347.27 436.93 1347.59 433.367 1348.04 430.852L1347.08 430.898C1345.44 430.898 1343.93 430.648 1342.55 430.148C1341.2 429.633 1340.52 428.055 1340.52 425.414C1340.52 421.039 1345.07 418.492 1354.18 417.773H1359.66ZM1359.66 434.812C1362.63 433.828 1364.12 432.875 1364.12 431.953V431.906C1364.05 430.969 1362.64 430.367 1359.88 430.102L1359.66 434.812Z" fill="#6863A9"/>
<path d="M1406.63 419.766C1410.91 420.25 1413.77 421.859 1415.19 424.594C1415.75 425.703 1416.03 426.711 1416.03 427.617C1416.03 428.977 1415.4 430.117 1414.13 431.039C1412.84 431.977 1411.56 432.445 1410.31 432.445C1409.53 432.445 1408.76 432.258 1407.99 431.883C1406.82 431.305 1405.52 431.016 1404.08 431.016C1403.09 431.016 1402.05 431.148 1400.94 431.414C1398.2 432.086 1396.84 432.914 1396.84 433.898C1396.84 434.227 1397.32 434.391 1398.29 434.391C1398.82 434.391 1399.49 434.336 1400.3 434.227C1400.79 434.18 1401.24 434.156 1401.66 434.156C1403.3 434.156 1404.59 434.57 1405.51 435.398C1406.45 436.258 1406.91 437.523 1406.91 439.195C1406.91 439.555 1406.89 439.938 1406.84 440.344C1406.59 442.594 1405.01 444.242 1402.09 445.289C1397.3 446.383 1394.91 447.414 1394.91 448.383C1394.98 448.742 1395.16 448.922 1395.45 448.922H1396.02C1400.94 448.922 1406.41 446.922 1412.42 442.922C1412.91 442.828 1413.37 442.781 1413.8 442.781C1416.43 442.781 1418.02 444.57 1418.56 448.148C1418.62 448.57 1418.66 448.977 1418.66 449.367C1418.66 452.945 1416 455.633 1410.69 457.43C1405.7 459.117 1400.9 459.961 1396.27 459.961C1395.43 459.961 1394.59 459.93 1393.77 459.867C1388.36 459.508 1384.73 456.773 1382.89 451.664C1382.7 450.68 1382.61 449.586 1382.61 448.383C1382.61 445.664 1383.8 443.023 1386.17 440.461C1384.89 438.367 1384.25 436.086 1384.25 433.617C1384.25 428.586 1386.91 424.898 1392.22 422.555C1396.62 420.617 1400.69 419.648 1404.41 419.648C1405.16 419.648 1405.9 419.688 1406.63 419.766Z" fill="#6863A9"/>
<path d="M1444.27 414.141C1446.95 414.734 1449.67 418.312 1452.45 424.875C1452.84 424.859 1453.22 424.852 1453.58 424.852C1460.33 424.852 1463.7 426.367 1463.7 429.398C1463.7 429.945 1463.59 430.531 1463.38 431.156C1463.38 433.281 1461.46 435.648 1457.63 438.258L1457.38 438.82C1459.38 445.07 1460.38 448.805 1460.38 450.023V451.945C1459.72 455.227 1458.08 456.867 1455.45 456.867H1454.35C1452.35 456.867 1448.07 454.312 1441.51 449.203L1430.56 456.047C1430.25 456.219 1429.89 456.305 1429.48 456.305H1427.3C1425.01 455.852 1423.64 454.484 1423.2 452.203V450.023L1425.92 439.898C1425.91 439.336 1423.91 437.062 1419.92 433.078L1419.36 431.156V429.516C1419.36 426.953 1421 425.227 1424.28 424.336C1429.16 424.508 1432.16 424.594 1433.3 424.594C1434.52 423.016 1435.98 420.555 1437.69 417.211C1439.08 415.07 1440.8 414 1442.84 414C1443.3 414 1443.77 414.047 1444.27 414.141Z" fill="#F0AE05"/>
<path d="M1486.46 416.133C1493.91 416.133 1499.02 418.406 1501.79 422.953C1502.12 423.703 1502.28 424.461 1502.28 425.227C1502.28 425.742 1502.2 426.266 1502.05 426.797C1501.59 429.078 1500.23 430.445 1497.95 430.898C1495.34 430.898 1493.63 430.398 1492.84 429.398C1492.05 428.383 1491.23 427.742 1490.38 427.477C1489.53 427.195 1488.41 427.055 1487.02 427.055H1486.2C1481.23 427.539 1478.5 428.727 1478 430.617C1479.5 431.117 1484.42 431.938 1492.77 433.078C1500.97 434.844 1505.07 438.398 1505.07 443.742C1505.07 450.711 1498.96 455.266 1486.74 457.406C1485.15 457.594 1483.78 457.688 1482.64 457.688C1475.17 457.688 1471.44 455.5 1471.44 451.125C1472.09 447.656 1473.73 445.922 1476.36 445.922H1477.44C1479.81 446.469 1481.37 446.742 1482.1 446.742H1484C1489.47 446.086 1492.2 445.266 1492.2 444.281C1491.16 443.609 1485.69 442.695 1475.8 441.539C1473.31 441.195 1470.95 439.961 1468.72 437.836C1466.94 436.164 1466.05 434.305 1466.05 432.258C1466.05 431.727 1466.11 431.18 1466.23 430.617C1467.72 421.945 1474.46 417.117 1486.46 416.133Z" fill="#6863A9"/>
<path d="M1514.56 418.594H1516.18C1518.62 418.594 1520.17 420.234 1520.84 423.516V424.336C1519.2 429.555 1518.38 433.195 1518.38 435.258C1518.2 435.883 1518.1 437.07 1518.1 438.82C1518.1 443.195 1519.1 445.383 1521.1 445.383C1523.93 445.383 1526.58 443.555 1529.05 439.898C1531.41 436.633 1533.32 430.531 1534.79 421.594C1535.96 419.766 1537.69 418.852 1539.97 418.852C1543.44 418.852 1545.17 421.773 1545.17 427.617C1545.17 429.352 1545.72 437.641 1546.81 452.484C1545.75 455.219 1544.11 456.586 1541.89 456.586H1541.07C1538.8 456.586 1537.16 455.125 1536.15 452.203C1536.15 450.562 1535.88 449.742 1535.33 449.742C1530.3 454.117 1525.74 456.305 1521.66 456.305H1520.84C1514.91 456.305 1510.71 452.938 1508.26 446.203C1507.71 444.422 1507.44 442.047 1507.44 439.078V437.438C1508.22 424.875 1510.59 418.594 1514.56 418.594Z" fill="#6863A9"/>
<path d="M1568.3 417.773C1577.21 417.773 1582.95 421.055 1585.53 427.617C1585.89 428.664 1586.07 429.844 1586.07 431.156C1586.07 434.594 1583.2 438.094 1577.45 441.656C1585.07 444.156 1588.88 446.742 1588.88 449.414C1588.88 449.633 1588.86 449.852 1588.81 450.07C1588.12 452.992 1585.96 454.727 1582.32 455.273C1576.02 454.352 1571.22 451.578 1567.91 446.953C1567.91 449.031 1567.98 450.602 1568.12 451.664C1568.26 452.727 1568.33 453.742 1568.33 454.711C1568.22 457.477 1566.58 458.922 1563.41 459.047C1563.22 459.062 1563.03 459.07 1562.84 459.07C1560.17 459.07 1558.26 457.789 1557.1 455.227C1556.37 450.555 1555.91 445.992 1555.72 441.539C1555.91 436.93 1556.23 433.367 1556.68 430.852L1555.72 430.898C1554.08 430.898 1552.57 430.648 1551.2 430.148C1549.84 429.633 1549.16 428.055 1549.16 425.414C1549.16 421.039 1553.71 418.492 1562.82 417.773H1568.3ZM1568.3 434.812C1571.27 433.828 1572.76 432.875 1572.76 431.953V431.906C1572.7 430.969 1571.28 430.367 1568.52 430.102L1568.3 434.812Z" fill="#6863A9"/>
<path d="M1615.27 419.766C1619.55 420.25 1622.41 421.859 1623.83 424.594C1624.39 425.703 1624.67 426.711 1624.67 427.617C1624.67 428.977 1624.04 430.117 1622.77 431.039C1621.48 431.977 1620.2 432.445 1618.95 432.445C1618.17 432.445 1617.4 432.258 1616.63 431.883C1615.46 431.305 1614.16 431.016 1612.72 431.016C1611.73 431.016 1610.69 431.148 1609.58 431.414C1606.84 432.086 1605.48 432.914 1605.48 433.898C1605.48 434.227 1605.96 434.391 1606.93 434.391C1607.46 434.391 1608.13 434.336 1608.95 434.227C1609.43 434.18 1609.88 434.156 1610.3 434.156C1611.95 434.156 1613.23 434.57 1614.15 435.398C1615.09 436.258 1615.55 437.523 1615.55 439.195C1615.55 439.555 1615.53 439.938 1615.48 440.344C1615.23 442.594 1613.65 444.242 1610.73 445.289C1605.95 446.383 1603.55 447.414 1603.55 448.383C1603.62 448.742 1603.8 448.922 1604.09 448.922H1604.66C1609.58 448.922 1615.05 446.922 1621.06 442.922C1621.55 442.828 1622.01 442.781 1622.45 442.781C1625.07 442.781 1626.66 444.57 1627.2 448.148C1627.27 448.57 1627.3 448.977 1627.3 449.367C1627.3 452.945 1624.64 455.633 1619.33 457.43C1614.34 459.117 1609.54 459.961 1604.91 459.961C1604.07 459.961 1603.23 459.93 1602.41 459.867C1597 459.508 1593.38 456.773 1591.53 451.664C1591.34 450.68 1591.25 449.586 1591.25 448.383C1591.25 445.664 1592.44 443.023 1594.81 440.461C1593.53 438.367 1592.89 436.086 1592.89 433.617C1592.89 428.586 1595.55 424.898 1600.86 422.555C1605.27 420.617 1609.33 419.648 1613.05 419.648C1613.8 419.648 1614.54 419.688 1615.27 419.766Z" fill="#6863A9"/>
<path d="M1134.68 495.266C1140.63 495.266 1145.19 498.367 1148.34 504.57V506.211C1148.34 509.18 1146.43 510.82 1142.6 511.133C1141.01 511.133 1139.01 509.672 1136.6 506.75C1135.99 506.391 1135.45 506.211 1134.96 506.211H1133.86C1129.78 506.211 1126.95 508.398 1125.38 512.773L1125.12 514.391V516.031C1125.99 520.781 1127.99 523.156 1131.12 523.156C1133.24 523.156 1136.71 521.695 1141.52 518.773C1141.82 518.586 1142.27 518.492 1142.88 518.492H1143.7C1146.98 519.133 1148.62 520.773 1148.62 523.414V524.234C1148.62 527.891 1144.07 530.992 1134.96 533.539C1134.01 533.727 1132.91 533.82 1131.68 533.82H1130.04C1123.43 533.82 1118.51 529.805 1115.27 521.773C1114.54 519.18 1114.17 516.992 1114.17 515.211C1114.17 507.352 1117.91 501.344 1125.38 497.188C1128.19 495.906 1131.29 495.266 1134.68 495.266Z" fill="#6863A9"/>
<path d="M1185.45 495.547C1188.73 496.297 1190.37 497.938 1190.37 500.469V501.289C1189.46 507.32 1189.01 512.148 1189.01 515.773V517.672C1189.01 520.031 1189.15 522.445 1189.43 524.914C1189.52 525.82 1189.57 526.656 1189.57 527.422C1189.57 528.781 1189.42 529.953 1189.12 530.938C1188.64 532.484 1186.96 533.258 1184.09 533.258C1180.88 533.258 1179.04 532.109 1178.55 529.812C1178.09 527.516 1177.85 524.656 1177.85 521.234C1175.54 520.984 1173.28 520.859 1171.08 520.859C1168.89 520.859 1166.75 520.984 1164.66 521.234C1164.66 522.812 1164.93 525.367 1165.48 528.898V529.438C1165.48 532.281 1163.66 533.922 1160.02 534.359C1156.19 533.703 1154.27 531.242 1154.27 526.977V521.984H1154.11C1152.3 521.984 1151.27 520.375 1151.02 517.156C1150.98 516.844 1150.97 516.531 1150.97 516.219C1150.97 513.453 1152.01 511.648 1154.09 510.805C1154.43 504.289 1155.14 500.383 1156.22 499.086C1157.03 498.086 1158.23 497.586 1159.83 497.586C1160.31 497.586 1160.83 497.633 1161.38 497.727C1163.81 497.727 1165.37 499.367 1166.04 502.648V503.469C1165.3 506.547 1164.88 508.875 1164.77 510.453C1167.13 510.25 1169.34 510.148 1171.41 510.148C1173.83 510.148 1176.03 510.289 1178.02 510.57L1179.16 502.648C1179.82 497.914 1181.91 495.547 1185.45 495.547Z" fill="#6863A9"/>
<path d="M1216.71 494.727H1217.79C1220.46 494.727 1222.1 496.547 1222.71 500.188C1221.62 513.219 1221.07 520.688 1221.07 522.594L1221.89 523.156C1226.66 522.422 1229.48 522.055 1230.38 522.055C1234.02 522.727 1235.84 524.547 1235.84 527.516C1235.84 530.938 1233.65 532.766 1229.27 533C1224.62 533.719 1221.7 534.078 1220.53 534.078C1215.91 534.078 1212.72 532.352 1210.97 528.898C1210.59 527.633 1210.41 526.539 1210.41 525.617V522.055C1211.17 504.93 1212.09 496.367 1213.15 496.367C1214.35 495.273 1215.54 494.727 1216.71 494.727Z" fill="#6863A9"/>
<path d="M1250.51 496.906C1260.51 496.906 1268.16 501.188 1273.48 509.75C1274.57 512.078 1275.12 514.359 1275.12 516.594V518.492C1275.12 528.664 1264.91 534.773 1244.51 536.82H1244.23C1240.21 536.82 1238.2 534.906 1238.2 531.078C1238.2 529.609 1239.21 527.969 1241.23 526.156C1240.49 520.516 1240.12 516.234 1240.12 513.312V508.672C1240.12 502.812 1242.31 499.07 1246.69 497.445C1248.06 497.086 1249.34 496.906 1250.51 496.906ZM1251.33 507.852L1250.79 508.672V511.133C1250.96 518.758 1251.51 523.219 1252.43 524.516H1252.69C1260.53 522.828 1264.45 520.547 1264.45 517.672C1264.45 513 1260.53 509.727 1252.69 507.852H1251.33Z" fill="#6863A9"/>
<path fill-rule="evenodd" clip-rule="evenodd" d="M1200.4 508.672H1198.22C1194.56 508.672 1192.73 513.68 1192.73 523.695C1192.73 525.039 1193.05 527.422 1193.67 530.844C1194.31 534.25 1196.01 536.148 1198.76 536.539C1202.4 535.945 1204.22 534.398 1204.22 531.898C1204.22 531.711 1204.04 529.344 1203.68 524.797V521.516C1203.68 520.047 1203.95 517.586 1204.5 514.133V513.312C1204.53 513.062 1204.55 512.82 1204.55 512.586C1204.55 510.242 1203.16 508.938 1200.4 508.672Z" fill="#6863A9"/>
<path d="M1200.94 490.883C1202.25 490.883 1203.32 491.898 1204.15 493.93C1204.43 493.914 1204.7 493.906 1204.97 493.906C1207.02 493.906 1208.04 494.633 1208.04 496.086V496.625C1208.04 496.969 1207.34 498.016 1205.93 499.766C1206.49 501.031 1206.77 502.117 1206.77 503.023C1206.77 503.227 1206.76 503.422 1206.73 503.609C1206.57 504.609 1205.93 505.109 1204.8 505.109C1203.68 505.109 1202.23 504.469 1200.45 503.188C1198.59 504.656 1197.27 505.391 1196.51 505.391C1195.74 505.391 1195.16 505.117 1194.75 504.57C1194.5 504.242 1194.38 503.836 1194.38 503.352C1194.38 503.023 1194.43 502.664 1194.54 502.273C1194.8 501.305 1195.09 500.516 1195.38 499.906C1193.8 498.312 1193.02 496.945 1193.02 495.805C1193.02 494.852 1194.48 494.219 1197.4 493.906C1198.63 491.891 1199.81 490.883 1200.94 490.883Z" fill="#F0AE05"/>
<path d="M1517.2 736.169C1515.9 730.882 1522.09 726.941 1526.33 730.356V730.356C1528.19 731.853 1530.81 732.009 1532.82 730.728L1533.14 730.527C1537.63 727.667 1543.14 732.295 1541.09 737.213V737.213C1540.16 739.447 1540.83 742.034 1542.71 743.552V743.552C1546.86 746.893 1544.36 753.615 1539.05 753.386L1538.43 753.36C1536.04 753.256 1533.83 754.66 1532.91 756.875L1532.68 757.439C1530.63 762.356 1523.48 761.766 1522.21 756.595V756.595C1521.64 754.245 1519.58 752.547 1517.16 752.443V752.443C1511.84 752.214 1509.97 745.268 1514.47 742.408L1514.79 742.207C1516.8 740.925 1517.77 738.486 1517.2 736.169V736.169Z" fill="#F0AE05"/>
<path d="M120.984 822.957C120.265 817.561 126.849 814.313 130.693 818.168V818.168C132.379 819.857 134.966 820.296 137.106 819.241L137.443 819.075C142.22 816.718 147.19 821.915 144.623 826.583V826.583C143.457 828.703 143.838 831.346 145.547 833.06V833.06C149.307 836.83 146.102 843.243 140.838 842.439L140.235 842.347C137.863 841.984 135.518 843.141 134.362 845.243L134.067 845.779C131.501 850.445 124.462 849.085 123.76 843.806V843.806C123.44 841.408 121.575 839.497 119.182 839.132V839.132C113.916 838.327 112.818 831.221 117.595 828.864L117.932 828.698C120.072 827.643 121.299 825.323 120.984 822.957V822.957Z" fill="#F0AE05"/>
<path d="M787.497 675.138C790.861 671.737 796.623 674.548 796.011 679.293L794.148 693.76C793.874 695.887 794.987 697.952 796.914 698.893L810.109 705.331C814.504 707.476 813.524 714.005 808.692 714.764L794.79 716.948C792.595 717.293 790.891 719.045 790.607 721.249L788.817 735.145C788.201 739.931 781.831 741.153 779.487 736.934L772.201 723.816C771.182 721.982 769.127 720.979 767.054 721.305L752.231 723.634C747.463 724.382 744.506 718.61 747.9 715.178L757.751 705.216C759.314 703.636 759.646 701.215 758.567 699.273L751.734 686.971C749.359 682.695 753.902 677.904 758.298 680.049L771.492 686.488C773.42 687.428 775.732 687.035 777.24 685.51L787.497 675.138Z" fill="#F0AE05"/>
<rect x="537.327" y="576" width="61.4732" height="33.5063" transform="rotate(21.5861 537.327 576)" fill="#875028"/>
<rect x="124" y="589.326" width="61.4732" height="33.5063" transform="rotate(-8.72611 124 589.326)" fill="#875028"/>
<rect x="79.3281" y="647.222" width="60.9997" height="50.4457" transform="rotate(-16.4959 79.3281 647.222)" fill="#875028"/>
<rect x="154.037" y="505.055" width="168.382" height="179.724" rx="10" transform="rotate(-12.0495 154.037 505.055)" fill="#DB6565"/>
<rect x="147.535" y="535.548" width="25.3009" height="11.3418" transform="rotate(-12.0495 147.535 535.548)" fill="#484848"/>
<rect x="161.741" y="602.1" width="25.3009" height="11.3418" transform="rotate(-12.0495 161.741 602.1)" fill="#484848"/>
<rect x="152.271" y="557.732" width="25.3009" height="11.3418" transform="rotate(-12.0495 152.271 557.732)" fill="#484848"/>
<rect x="166.477" y="624.284" width="25.3009" height="11.3418" transform="rotate(-12.0495 166.477 624.284)" fill="#484848"/>
<rect x="157.006" y="579.916" width="25.3009" height="11.3418" transform="rotate(-12.0495 157.006 579.916)" fill="#484848"/>
<rect x="171.212" y="646.467" width="25.3009" height="11.3418" transform="rotate(-12.0495 171.212 646.467)" fill="#484848"/>
<rect x="235.484" y="534.323" width="168.382" height="179.724" rx="10" transform="rotate(-9.6712 235.484 534.323)" fill="#DB8B51"/>
<rect x="227.724" y="564.521" width="25.3009" height="11.3418" transform="rotate(-9.6712 227.724 564.521)" fill="#484848"/>
<rect x="239.155" y="631.604" width="25.3009" height="11.3418" transform="rotate(-9.6712 239.155 631.604)" fill="#484848"/>
<rect x="231.534" y="586.882" width="25.3009" height="11.3418" transform="rotate(-9.6712 231.534 586.882)" fill="#484848"/>
<rect x="242.967" y="653.966" width="25.3009" height="11.3418" transform="rotate(-9.6712 242.967 653.966)" fill="#484848"/>
<rect x="235.346" y="609.243" width="25.3009" height="11.3418" transform="rotate(-9.6712 235.346 609.243)" fill="#484848"/>
<rect x="246.776" y="676.327" width="25.3009" height="11.3418" transform="rotate(-9.6712 246.776 676.327)" fill="#484848"/>
<rect x="410.581" y="472.454" width="168.382" height="179.724" rx="10" transform="rotate(27.6148 410.581 472.454)" fill="#A777AB"/>
<rect x="386.111" y="491.778" width="25.3009" height="11.3418" transform="rotate(27.6148 386.111 491.778)" fill="#484848"/>
<rect x="354.569" y="552.077" width="25.3009" height="11.3418" transform="rotate(27.6148 354.569 552.077)" fill="#484848"/>
<rect x="375.597" y="511.878" width="25.3009" height="11.3418" transform="rotate(27.6148 375.597 511.878)" fill="#484848"/>
<rect x="344.055" y="572.176" width="25.3009" height="11.3418" transform="rotate(27.6148 344.055 572.176)" fill="#484848"/>
<rect x="365.083" y="531.977" width="25.3009" height="11.3418" transform="rotate(27.6148 365.083 531.977)" fill="#484848"/>
<rect x="333.54" y="592.276" width="25.3009" height="11.3418" transform="rotate(27.6148 333.54 592.276)" fill="#484848"/>
<rect x="675.136" y="492.003" width="18.3213" height="78.52" rx="3" transform="rotate(49.2734 675.136 492.003)" fill="#51BABA"/>
<rect x="684.846" y="483.643" width="18.3213" height="17.1746" rx="3" transform="rotate(49.2734 684.846 483.643)" fill="#DB6565"/>
<path d="M612.084 554.948C611.322 557.128 613.205 559.316 615.474 558.886L628.277 556.461C630.546 556.031 631.499 553.306 629.992 551.556L621.49 541.681C619.984 539.931 617.147 540.468 616.385 542.648L612.084 554.948Z" fill="#FFD5B7"/>
<path d="M611.512 556.583C611.004 558.036 612.26 559.495 613.772 559.208L618.101 558.388C619.613 558.102 620.249 556.285 619.244 555.118L616.37 551.78C615.365 550.613 613.474 550.971 612.966 552.425L611.512 556.583Z" fill="#484848"/>
<rect x="111.428" y="413.549" width="18.3213" height="78.52" rx="3" transform="rotate(-49.9007 111.428 413.549)" fill="#DB8B51"/>
<rect x="104.262" y="407.516" width="18.3213" height="13.7297" rx="3" transform="rotate(-49.9007 104.262 407.516)" fill="#DB6565"/>
<path d="M183.619 465.759C185.893 466.164 187.752 463.956 186.966 461.784L182.531 449.533C181.745 447.361 178.903 446.855 177.415 448.621L169.022 458.588C167.535 460.355 168.517 463.069 170.791 463.474L183.619 465.759Z" fill="#FFD5B7"/>
<path d="M185.325 466.063C186.84 466.333 188.08 464.861 187.556 463.413L186.057 459.271C185.532 457.824 183.638 457.486 182.646 458.664L179.809 462.033C178.817 463.211 179.472 465.021 180.988 465.291L185.325 466.063Z" fill="#484848"/>
<path d="M209.157 659.3C207.237 642.459 219.639 627.372 236.533 625.999L559.268 599.755C571.548 598.757 581.802 608.991 580.826 621.273L566.636 799.969C565.573 813.36 555.737 824.412 542.56 827.022L267.177 881.576C249.974 884.984 233.528 872.972 231.541 855.547L209.157 659.3Z" fill="#BC6C32"/>
<path d="M206.837 629.367L153.628 599.208C146.124 594.955 137.116 601.56 138.917 609.996L179.718 801.086L223.775 869.415C226.636 873.851 233.526 871.404 232.947 866.157L206.837 629.367Z" fill="#875028"/>
<path d="M169.573 611.38L215.716 627.177C219.2 628.37 221.746 631.38 222.344 635.013L262.983 881.857C263.104 882.591 262.616 883.288 261.884 883.426V883.426C239.529 887.632 218.008 872.882 213.866 850.515L169.573 611.38Z" fill="#F3CD45"/>
<path d="M125.169 612.424C122.929 600.518 134.377 590.628 145.832 594.573V594.573C146.013 594.635 146.146 594.792 146.179 594.98L182.766 805.027C182.83 805.392 182.588 805.74 182.224 805.808V805.808C171.198 807.883 160.578 800.626 158.504 789.6L125.169 612.424Z" fill="#F3CD45"/>
<path d="M584.389 595.911C595.103 594.958 603.882 604.29 602.276 614.926V614.926L180.788 655.595C180.342 655.638 179.95 655.301 179.925 654.854V654.854C179.207 642.108 188.732 631.092 201.447 629.962L584.389 595.911Z" fill="#F3CD45"/>
<path d="M603.433 621.986C604.955 601.338 581.086 588.842 564.985 601.858V601.858L545.367 833.901C544.372 845.667 553.198 855.972 564.977 856.798V856.798C576.608 857.613 586.708 848.868 587.565 837.24L603.433 621.986Z" fill="#F3CD45"/>
<path d="M438.348 626.835L398.236 629.145L398.373 847.134C398.377 853.091 403.555 857.724 409.476 857.066L434.202 854.322C439.35 853.751 443.21 849.343 443.097 844.165L438.348 626.835Z" fill="#F3CD45"/>
<rect x="679.168" y="839.788" width="47.4055" height="179.724" rx="10" transform="rotate(89.9597 679.168 839.788)" fill="#DB6565"/>
<rect x="646.041" y="792.264" width="47.4055" height="179.724" rx="10" transform="rotate(89.9597 646.041 792.264)" fill="#5C9258"/>
<rect x="672.838" y="744.974" width="47.4055" height="179.724" rx="10" transform="rotate(89.9597 672.838 744.974)" fill="#51BABA"/>
<rect x="627.892" y="792.38" width="47.4055" height="10.0717" transform="rotate(-90 627.892 792.38)" fill="#484848"/>
<rect x="642.867" y="792.38" width="47.4055" height="10.0717" transform="rotate(-90 642.867 792.38)" fill="#484848"/>
<path d="M679.283 856.106L679.293 869.431L520.982 869.542C518.22 869.544 515.98 867.307 515.978 864.546L515.976 861.221C515.974 858.459 518.211 856.219 520.972 856.217L679.283 856.106Z" fill="white"/>
<rect x="455.501" y="735.516" width="47.4055" height="179.724" rx="10" transform="rotate(38.6049 455.501 735.516)" fill="#E08888"/>
<path d="M139.47 590.913C129.764 586.319 118.238 591.366 115.032 601.614V601.614L216.063 653.319C216.412 653.498 216.839 653.366 217.027 653.022V653.022C223.007 642.07 218.543 628.344 207.265 623.005L139.47 590.913Z" fill="#F3CD45"/>
<path d="M413.039 657.218C415.28 651.091 423.946 651.091 426.187 657.218L430.513 669.045C431.647 672.145 434.791 674.031 438.059 673.573L448.151 672.157C454.768 671.229 458.8 679.217 454.122 683.989L443.658 694.667C441.681 696.684 441.11 699.691 442.21 702.292L444.877 708.603C447.211 714.123 441.981 719.832 436.278 717.989L422.935 713.679C420.844 713.003 418.556 713.35 416.758 714.614L403.442 723.975C397.912 727.863 390.629 722.429 392.781 716.02L396.813 704.012C397.959 700.598 396.329 696.873 393.045 695.398L386.119 692.288C380.04 689.558 380.854 680.681 387.328 679.101L403.139 675.244C405.408 674.691 407.252 673.042 408.054 670.848L413.039 657.218Z" fill="#F0AE05"/>
<path d="M603.012 455.855C605.842 452.631 611.184 454.855 610.889 459.135V459.135C610.76 461.012 611.841 462.775 613.577 463.498L613.851 463.612C617.726 465.226 617.219 470.871 613.117 471.767V471.767C611.254 472.175 609.882 473.771 609.751 475.674V475.674C609.463 479.861 603.994 481.284 601.742 477.742L601.484 477.336C600.469 475.74 598.566 474.948 596.719 475.352L596.249 475.455C592.149 476.351 589.306 471.467 592.075 468.313V468.313C593.333 466.88 593.5 464.782 592.477 463.172V463.172C590.224 459.629 593.873 455.293 597.748 456.907L598.022 457.02C599.758 457.744 601.771 457.269 603.012 455.855V455.855Z" fill="#F0AE05"/>
<path d="M424.72 292.884C425.29 291.091 427.795 291.005 428.487 292.755L429.7 295.826C430.011 296.613 430.783 297.119 431.628 297.09L434.793 296.981C436.773 296.914 437.636 299.457 436.024 300.608L433.837 302.169C433.089 302.703 432.801 303.677 433.139 304.532L434.155 307.104C434.861 308.892 432.885 310.55 431.247 309.543L428.219 307.68C427.534 307.259 426.664 307.289 426.01 307.756L423.116 309.821C421.552 310.938 419.466 309.42 420.048 307.588L420.886 304.952C421.164 304.076 420.81 303.124 420.028 302.643L417.739 301.235C416.051 300.197 416.738 297.601 418.718 297.533L421.883 297.424C422.729 297.395 423.464 296.837 423.721 296.031L424.72 292.884Z" fill="#F0AE05"/>
<path d="M199.517 426.923C198.264 423.306 202.318 420.164 205.507 422.279L206.991 423.263C208.421 424.211 210.296 424.142 211.652 423.091L212.838 422.171C215.931 419.774 220.271 422.785 219.108 426.521L218.768 427.616C218.24 429.314 218.895 431.156 220.377 432.138L221.476 432.867C224.694 435.001 223.321 440.005 219.464 440.196L217.573 440.29C215.897 440.373 214.451 441.494 213.952 443.097L213.39 444.905C212.243 448.592 207.055 448.675 205.791 445.027L205.359 443.78C204.777 442.1 203.156 441.006 201.381 441.095L200.235 441.152C196.327 441.346 194.493 436.392 197.586 433.995L198.771 433.076C200.127 432.025 200.662 430.226 200.1 428.605L199.517 426.923Z" fill="#F0AE05"/>
<rect x="470.696" y="455.162" width="18.3213" height="78.52" rx="3" transform="rotate(32.0916 470.696 455.162)" fill="#6863A9"/>
<rect x="470.736" y="455.144" width="18.3213" height="7.25089" rx="3" transform="rotate(32.0916 470.736 455.144)" fill="#6F99CA"/>
<rect x="463.473" y="467.227" width="18.3213" height="7.25089" transform="rotate(32.0916 463.473 467.227)" fill="#484848"/>
<rect x="443.071" y="499.791" width="18.3213" height="4.45222" transform="rotate(32.0916 443.071 499.791)" fill="#484848"/>
<rect x="438.773" y="506.255" width="18.3213" height="4.45222" transform="rotate(32.0916 438.773 506.255)" fill="#484848"/>
<path d="M436.817 533.558C433.754 534.674 430.46 532.608 430.131 529.365L429.616 524.293C429.195 520.153 433.721 517.342 437.246 519.552L442.551 522.879C446.077 525.089 445.517 530.388 441.607 531.813L436.817 533.558Z" fill="#6F99CA"/>
<rect x="270.812" y="270.523" width="18.3213" height="78.52" rx="3" transform="rotate(-22.6076 270.812 270.523)" fill="#F3CD45"/>
<rect x="270.821" y="270.479" width="18.3213" height="7.25088" rx="3" transform="rotate(-22.6076 270.821 270.479)" fill="#DB8B51"/>
<path d="M315.216 343.475C314.357 346.62 310.767 348.115 307.93 346.509L303.493 343.999C299.872 341.95 300.192 336.631 304.033 335.031L309.814 332.624C313.655 331.024 317.656 334.543 316.559 338.558L315.216 343.475Z" fill="#F3CD45"/>
<path d="M309.2 348.092C308.997 347.584 309.24 347.008 309.744 346.798L313.774 345.12C314.284 344.908 314.87 345.149 315.082 345.659L316.166 348.262C316.314 348.618 316.244 349.028 315.986 349.315L312.698 352.968C312.202 353.518 311.3 353.357 311.026 352.669L309.2 348.092Z" fill="#DB8B51"/>
<rect width="12.6866" height="54.371" rx="3" transform="matrix(-0.989666 0.143393 0.143393 0.989666 399.279 378.528)" fill="#6F99CA"/>
<rect width="12.6866" height="5.02086" rx="2.51043" transform="matrix(-0.989666 0.143393 0.143393 0.989666 399.259 378.504)" fill="#51BABA"/>
<path d="M397.806 436.719C399.931 438.762 403.412 438.258 404.87 435.696V435.696C406.732 432.425 404.016 428.444 400.291 428.984V428.984C396.567 429.523 395.092 434.111 397.806 436.719V436.719Z" fill="#6F99CA"/>
<path d="M404.052 438.57C403.965 438.03 403.462 437.66 402.921 437.738L400.534 438.084C399.987 438.164 399.608 438.671 399.688 439.217L399.896 440.653C399.951 441.035 400.221 441.351 400.59 441.465L403.184 442.266C403.892 442.484 404.583 441.883 404.466 441.152L404.052 438.57Z" fill="#51BABA"/>
<rect width="18.3213" height="78.52" rx="3" transform="matrix(-0.791189 -0.611572 -0.611572 0.791189 583.64 336.911)" fill="#E08888"/>
<rect width="18.3213" height="7.25088" rx="3" transform="matrix(-0.791189 -0.611572 -0.611572 0.791189 583.642 336.866)" fill="#DB6565"/>
<rect width="18.3213" height="7.25088" transform="matrix(-0.791189 -0.611572 -0.611572 0.791189 574.812 347.857)" fill="#484848"/>
<rect width="18.3213" height="4.45222" transform="matrix(-0.791189 -0.611572 -0.611572 0.791189 551.298 378.25)" fill="#484848"/>
<rect width="18.3213" height="4.45222" transform="matrix(-0.791189 -0.611572 -0.611572 0.791189 546.715 384.516)" fill="#484848"/>
<path d="M521.769 395.782C521.779 399.042 524.856 401.42 528.013 400.609L532.951 399.34C536.981 398.305 538.057 393.087 534.765 390.542L529.81 386.712C526.518 384.167 521.739 386.523 521.753 390.684L521.769 395.782Z" fill="#DB6565"/>
<mask id="path-87-outside-1_42_967" maskUnits="userSpaceOnUse" x="-2.34327" y="582.204" width="174.282" height="141.522" fill="black">
<rect fill="white" x="-2.34327" y="582.204" width="174.282" height="141.522"/>
<path d="M124.643 604.516C127.164 603.388 130.147 604.51 131.021 607.13C132.799 612.454 133.689 618.067 133.653 623.78C133.606 631.188 132.003 638.617 128.935 645.644C125.867 652.671 121.394 659.159 115.771 664.736C110.149 670.313 103.487 674.871 96.1657 678.149C88.8446 681.428 81.0078 683.362 73.1028 683.842C65.1978 684.322 57.3794 683.338 50.094 680.947C42.8085 678.556 36.1987 674.804 30.642 669.906C26.3565 666.128 22.762 661.725 19.9737 656.854C18.602 654.457 19.7514 651.484 22.2716 650.355L73.4574 627.436L124.643 604.516Z"/>
</mask>
<path d="M124.643 604.516C127.164 603.388 130.147 604.51 131.021 607.13C132.799 612.454 133.689 618.067 133.653 623.78C133.606 631.188 132.003 638.617 128.935 645.644C125.867 652.671 121.394 659.159 115.771 664.736C110.149 670.313 103.487 674.871 96.1657 678.149C88.8446 681.428 81.0078 683.362 73.1028 683.842C65.1978 684.322 57.3794 683.338 50.094 680.947C42.8085 678.556 36.1987 674.804 30.642 669.906C26.3565 666.128 22.762 661.725 19.9737 656.854C18.602 654.457 19.7514 651.484 22.2716 650.355L73.4574 627.436L124.643 604.516Z" fill="#BC6C32"/>
<path d="M124.643 604.516C127.164 603.388 130.147 604.51 131.021 607.13C132.799 612.454 133.689 618.067 133.653 623.78C133.606 631.188 132.003 638.617 128.935 645.644C125.867 652.671 121.394 659.159 115.771 664.736C110.149 670.313 103.487 674.871 96.1657 678.149C88.8446 681.428 81.0078 683.362 73.1028 683.842C65.1978 684.322 57.3794 683.338 50.094 680.947C42.8085 678.556 36.1987 674.804 30.642 669.906C26.3565 666.128 22.762 661.725 19.9737 656.854C18.602 654.457 19.7514 651.484 22.2716 650.355L73.4574 627.436L124.643 604.516Z" stroke="#F3CD45" stroke-width="30" mask="url(#path-87-outside-1_42_967)"/>
</g>
<defs>
<clipPath id="clip0_42_967">
<rect width="1728" height="1117" fill="white"/>
</clipPath>
</defs>
</svg>
