<svg width="173" height="172" viewBox="0 0 173 172" fill="none" xmlns="http://www.w3.org/2000/svg">
<circle cx="86.4427" cy="85.6575" r="85.6575" fill="#232323"/>
<g clip-path="url(#clip0_39_9)">
<path d="M86.4429 53.4775C97.7606 53.4775 99.1011 53.5201 103.571 53.7217C107.703 53.9084 109.948 54.5917 111.442 55.1662C113.42 55.9271 114.832 56.8361 116.315 58.3039C117.799 59.7717 118.717 61.169 119.486 63.1267C120.067 64.6049 120.757 66.8261 120.946 70.9155C121.149 75.3388 121.192 76.6653 121.192 87.8651C121.192 99.0653 121.149 100.392 120.946 104.815C120.757 108.904 120.067 111.125 119.486 112.604C118.717 114.561 117.799 115.959 116.315 117.427C114.832 118.894 113.42 119.803 111.442 120.564C109.948 121.139 107.703 121.822 103.571 122.009C99.1018 122.21 97.7613 122.253 86.4429 122.253C75.1242 122.253 73.7837 122.21 69.3148 122.009C65.1821 121.822 62.9378 121.139 61.444 120.564C59.4657 119.803 58.0534 118.894 56.5702 117.427C55.0869 115.959 54.1683 114.561 53.3997 112.604C52.8192 111.126 52.1284 108.904 51.94 104.815C51.736 100.392 51.693 99.0653 51.693 87.8651C51.693 76.6653 51.736 75.3388 51.94 70.9158C52.1288 66.8261 52.8192 64.6049 53.3997 63.1267C54.1683 61.169 55.0869 59.7717 56.5702 58.3039C58.0537 56.8358 59.4657 55.9271 61.444 55.1662C62.9375 54.5917 65.1821 53.9084 69.3148 53.7217C73.7843 53.5201 75.1248 53.4775 86.4429 53.4775ZM86.4429 45.9194C74.9311 45.9194 73.4876 45.9676 68.9668 46.1718C64.4548 46.3756 61.3735 47.0847 58.6776 48.1216C55.89 49.1935 53.5262 50.6278 51.1698 52.9598C48.8133 55.2917 47.3642 57.6308 46.281 60.3891C45.2329 63.0572 44.5166 66.1065 44.3106 70.571C44.1043 75.0448 44.0557 76.4733 44.0557 87.8651C44.0557 99.257 44.1043 100.685 44.3106 105.159C44.5166 109.624 45.2329 112.673 46.281 115.341C47.3639 118.099 48.8133 120.439 51.1698 122.771C53.5262 125.103 55.89 126.537 58.6776 127.609C61.3738 128.646 64.4548 129.355 68.9664 129.558C73.4876 129.763 74.9311 129.811 86.4429 129.811C97.9547 129.811 99.3981 129.763 103.919 129.558C108.431 129.355 111.512 128.646 114.208 127.609C116.995 126.537 119.359 125.103 121.716 122.771C124.072 120.439 125.522 118.1 126.605 115.341C127.653 112.673 128.369 109.624 128.575 105.16C128.781 100.685 128.83 99.257 128.83 87.8651C128.83 76.4733 128.781 75.0448 128.575 70.571C128.369 66.1065 127.653 63.0572 126.605 60.3894C125.522 57.6308 124.072 55.2917 121.716 52.9598C119.359 50.6278 116.995 49.1932 114.208 48.1216C111.512 47.0847 108.431 46.3756 103.919 46.1718C99.3981 45.9676 97.9547 45.9194 86.4429 45.9194ZM86.4429 66.3254C74.4215 66.3254 64.6764 75.9696 64.6764 87.8651C64.6764 99.7613 74.4215 109.405 86.4429 109.405C98.464 109.405 108.209 99.7613 108.209 87.8651C108.209 75.9693 98.464 66.3254 86.4429 66.3254ZM86.4429 101.847C78.6397 101.847 72.3137 95.5871 72.3137 87.8651C72.3137 80.1432 78.6397 73.8831 86.4429 73.8831C94.2461 73.8831 100.572 80.1432 100.572 87.8651C100.572 95.5871 94.2461 101.847 86.4429 101.847ZM114.156 65.4743C114.156 68.2545 111.879 70.5078 109.069 70.5078C106.26 70.5078 103.983 68.2545 103.983 65.4743C103.983 62.6944 106.26 60.4408 109.069 60.4408C111.879 60.4408 114.156 62.6944 114.156 65.4743Z" fill="white"/>
</g>
<defs>
<clipPath id="clip0_39_9">
<rect width="84.7745" height="83.8914" fill="white" transform="translate(44.0557 45.9194)"/>
</clipPath>
</defs>
</svg>
