<svg width="169" height="35" viewBox="0 0 169 35" fill="none" xmlns="http://www.w3.org/2000/svg">
<path d="M17.4375 4.51758C22.043 4.51758 25.1191 5.74805 26.666 8.20898C26.9355 8.74805 27.0703 9.49805 27.0703 10.459C27.0703 12.498 25.7051 13.7285 22.9746 14.1504C22.5059 14.1504 21.2051 13.6758 19.0723 12.7266C18.7324 12.7266 18.1875 12.6562 17.4375 12.5156C15.1055 12.5156 12.5039 13.541 9.63281 15.5918C8.68359 16.9277 8.20898 17.8828 8.20898 18.457V18.8613C8.20898 20.5371 9.91406 22.3184 13.3242 24.2051C15.5156 24.8848 16.9512 25.2246 17.6309 25.2246C19.1426 25.0137 19.8984 24.6738 19.8984 24.2051C16.7461 23.6074 15.1699 22.4414 15.1699 20.707V19.0723C15.1699 17.373 16.541 16.2832 19.2832 15.8027C24.4512 15.8027 27.9375 17.7129 29.7422 21.5332L29.9355 22.7637V23.9941C29.9355 26.8184 27.4746 29.6191 22.5527 32.3965C20.8652 32.9473 19.4297 33.2227 18.2461 33.2227H17.2266C10.5234 33.2227 5.12695 29.9414 1.03711 23.3789C0.345703 21.5977 0 20.0273 0 18.668C0 13.3008 3.35156 9.06445 10.0547 5.95898C12.3633 4.99805 14.8242 4.51758 17.4375 4.51758Z" fill="#6863A9"/>
<path d="M57.4453 2.26758C60.3164 2.54883 61.752 3.7793 61.752 5.95898V6.76758C61.752 8.04492 60.041 10.4414 56.6191 13.957C56.6191 14.168 55.9395 15.0527 54.5801 16.6113C54.4395 16.8809 54.3691 17.0859 54.3691 17.2266L54.7734 17.4375H56.6191C56.9824 17.4375 57.3926 16.3418 57.8496 14.1504C58.7754 12.791 60.0059 12.1113 61.541 12.1113C63.9551 12.1113 65.2559 13.5469 65.4434 16.418C65.4434 16.957 66.334 17.3613 68.1152 17.6309C69.3457 18.7324 69.9609 19.7578 69.9609 20.707V21.7441C69.9609 23.6191 68.5254 24.8496 65.6543 25.4355L65.4434 25.8398V27.6855C65.209 30.5566 63.9082 31.9922 61.541 31.9922H61.3477C58.9805 31.9922 57.6797 30.5566 57.4453 27.6855V26.0508L57.041 25.4355C53.0449 25.5645 50.5137 25.6992 49.4473 25.8398C44.9355 25.4883 42.6797 23.9824 42.6797 21.3223V19.8984C42.6797 18.3164 45.3457 14.5547 50.6777 8.61328C53.8418 4.38281 55.9629 2.26758 57.041 2.26758H57.4453Z" fill="#6863A9"/>
<path d="M75.2168 2.88281H76.2363C78.1816 2.88281 79.4121 4.24805 79.9277 6.97852V10.8809C79.9277 11.1504 80.1328 11.2852 80.543 11.2852C83.4609 9.45703 87.1523 6.92578 91.6172 3.69141L93.041 3.49805C95.6426 3.9668 96.9434 5.12695 96.9434 6.97852V8.41992C96.9434 9.84961 93.7324 12.5801 87.3105 16.6113C86.3496 17.291 85.8691 17.7012 85.8691 17.8418V18.0527C86.3496 18.5449 88.8105 19.6348 93.252 21.3223C94.8926 22.4004 95.7129 23.5664 95.7129 24.8203V25.6289C95.7129 27.5977 94.4121 28.8281 91.8105 29.3203C91.0488 29.3203 87.498 27.9551 81.1582 25.2246L80.1211 25.0137C79.7695 29.666 79.3594 31.9922 78.8906 31.9922C78.1875 33.082 77.0977 33.627 75.6211 33.627C73.7695 33.627 72.4688 32.6016 71.7188 30.5508C71.8594 24.6797 71.9297 20.168 71.9297 17.0156V10.8809C71.9297 9.52148 71.8594 7.88086 71.7188 5.95898C72.5625 3.9082 73.7285 2.88281 75.2168 2.88281Z" fill="#6863A9"/>
<path d="M119.443 4.51758C126.943 4.51758 132.686 7.72852 136.67 14.1504C137.49 15.8965 137.9 17.6074 137.9 19.2832V20.707C137.9 28.3359 130.248 32.918 114.943 34.4531H114.732C111.721 34.4531 110.215 33.0176 110.215 30.1465C110.215 29.0449 110.971 27.8145 112.482 26.4551C111.932 22.2246 111.656 19.0137 111.656 16.8223V13.3418C111.656 8.94727 113.297 6.14062 116.578 4.92188C117.609 4.65234 118.564 4.51758 119.443 4.51758ZM120.059 12.7266L119.654 13.3418V15.1875C119.783 20.9062 120.193 24.252 120.885 25.2246H121.078C126.961 23.959 129.902 22.248 129.902 20.0918C129.902 16.5879 126.961 14.1328 121.078 12.7266H120.059Z" fill="#6863A9"/>
<path d="M154.986 1.65234C160.576 1.65234 164.408 3.35742 166.482 6.76758C166.729 7.33008 166.852 7.89844 166.852 8.47266C166.852 8.85938 166.793 9.25195 166.676 9.65039C166.336 11.3613 165.311 12.3867 163.6 12.7266C161.643 12.7266 160.365 12.3516 159.768 11.6016C159.182 10.8398 158.566 10.3594 157.922 10.1602C157.289 9.94922 156.451 9.84375 155.408 9.84375H154.793C151.066 10.207 149.016 11.0977 148.641 12.5156C149.766 12.8906 153.457 13.5059 159.715 14.3613C165.867 15.6855 168.943 18.3516 168.943 22.3594C168.943 27.5859 164.361 31.002 155.197 32.6074C154.002 32.748 152.977 32.8184 152.121 32.8184C146.52 32.8184 143.719 31.1777 143.719 27.8965C144.211 25.2949 145.441 23.9941 147.41 23.9941H148.219C150 24.4043 151.166 24.6094 151.717 24.6094H153.141C157.242 24.1172 159.293 23.502 159.293 22.7637C158.508 22.2598 154.406 21.5742 146.988 20.707C145.125 20.4492 143.355 19.5234 141.68 17.9297C140.344 16.6758 139.676 15.2812 139.676 13.7461C139.676 13.3477 139.723 12.9375 139.816 12.5156C140.93 6.01172 145.986 2.39062 154.986 1.65234Z" fill="#6863A9"/>
<path d="M35.8242 13.3418H37.459C39.5332 13.541 40.5703 14.5195 40.5703 16.2773C40.5703 16.4531 40.5586 16.6348 40.5352 16.8223V17.4375C40.125 20.0273 39.9199 21.873 39.9199 22.9746V25.4355C40.1895 28.8457 40.3242 30.6211 40.3242 30.7617C40.3242 32.6367 38.959 33.7969 36.2285 34.2422C34.166 33.9492 32.8945 32.5254 32.4141 29.9707C31.9453 27.4043 31.7109 25.6172 31.7109 24.6094C31.7109 17.0977 33.082 13.3418 35.8242 13.3418Z" fill="#6863A9"/>
<path d="M37.8633 0C38.8477 0 39.6504 0.761719 40.2715 2.28516C40.4824 2.27344 40.6875 2.26758 40.8867 2.26758C42.4219 2.26758 43.1895 2.8125 43.1895 3.90234V4.30664C43.1895 4.56445 42.6621 5.34961 41.6074 6.66211C42.0293 7.61133 42.2402 8.42578 42.2402 9.10547C42.2402 9.25781 42.2285 9.4043 42.2051 9.54492C42.0879 10.2949 41.6074 10.6699 40.7637 10.6699C39.9199 10.6699 38.8301 10.1895 37.4941 9.22852C36.0996 10.3301 35.1152 10.8809 34.541 10.8809C33.9668 10.8809 33.5273 10.6758 33.2227 10.2656C33.0352 10.0195 32.9414 9.71484 32.9414 9.35156C32.9414 9.10547 32.9824 8.83594 33.0645 8.54297C33.2637 7.81641 33.4746 7.22461 33.6973 6.76758C32.5137 5.57227 31.9219 4.54688 31.9219 3.69141C31.9219 2.97656 33.0176 2.50195 35.209 2.26758C36.1348 0.755859 37.0195 0 37.8633 0Z" fill="#F0AE05"/>
<path d="M102.832 13.3418H104.467C106.541 13.541 107.578 14.5195 107.578 16.2773C107.578 16.4531 107.566 16.6348 107.543 16.8223V17.4375C107.133 20.0273 106.928 21.873 106.928 22.9746V25.4355C107.197 28.8457 107.332 30.6211 107.332 30.7617C107.332 32.6367 105.967 33.7969 103.236 34.2422C101.174 33.9492 99.9023 32.5254 99.4219 29.9707C98.9531 27.4043 98.7188 25.6172 98.7188 24.6094C98.7188 17.0977 100.09 13.3418 102.832 13.3418Z" fill="#6863A9"/>
<path d="M104.871 0C105.855 0 106.658 0.761719 107.279 2.28516C107.49 2.27344 107.695 2.26758 107.895 2.26758C109.43 2.26758 110.197 2.8125 110.197 3.90234V4.30664C110.197 4.56445 109.67 5.34961 108.615 6.66211C109.037 7.61133 109.248 8.42578 109.248 9.10547C109.248 9.25781 109.236 9.4043 109.213 9.54492C109.096 10.2949 108.615 10.6699 107.771 10.6699C106.928 10.6699 105.838 10.1895 104.502 9.22852C103.107 10.3301 102.123 10.8809 101.549 10.8809C100.975 10.8809 100.535 10.6758 100.23 10.2656C100.043 10.0195 99.9492 9.71484 99.9492 9.35156C99.9492 9.10547 99.9902 8.83594 100.072 8.54297C100.271 7.81641 100.482 7.22461 100.705 6.76758C99.5215 5.57227 98.9297 4.54688 98.9297 3.69141C98.9297 2.97656 100.025 2.50195 102.217 2.26758C103.143 0.755859 104.027 0 104.871 0Z" fill="#F0AE05"/>
</svg>
